<?xml version="1.0" encoding="UTF-8" standalone="no"?>
<svg
   data-name="Layer 1"
   width="862.70319"
   height="644.81433"
   viewBox="0 0 862.70317 644.8143"
   version="1.1"
   id="svg50"
   sodipodi:docname="undraw_empty_re_opql.svg"
   inkscape:export-filename="empty_box.svg"
   inkscape:export-xdpi="96"
   inkscape:export-ydpi="96"
   xmlns:inkscape="http://www.inkscape.org/namespaces/inkscape"
   xmlns:sodipodi="http://sodipodi.sourceforge.net/DTD/sodipodi-0.dtd"
   xmlns="http://www.w3.org/2000/svg"
   xmlns:svg="http://www.w3.org/2000/svg">
  <defs
     id="defs50" />
  <sodipodi:namedview
     id="namedview50"
     pagecolor="#505050"
     bordercolor="#eeeeee"
     borderopacity="1"
     inkscape:showpageshadow="0"
     inkscape:pageopacity="0"
     inkscape:pagecheckerboard="0"
     inkscape:deskcolor="#505050" />
  <polygon
     points="604.608,546.435 629.943,546.435 629.943,612.644 612.777,612.644 "
     fill="#9e616a"
     id="polygon1"
     transform="translate(-2.3873347e-5,0.0284294)" />
  <path
     d="m 639.00267,642.41354 h -12.30995 l -2.19727,-11.62205 -5.62754,11.62205 h -32.64893 a 7.33919,7.33919 0 0 1 -4.17038,-13.37865 l 26.07247,-18.00658 v -11.7495 l 27.42368,1.63683 z"
     fill="#2f2e41"
     id="path1" />
  <polygon
     points="672.085,552.969 692.415,537.851 731.923,590.981 718.148,601.224 "
     fill="#9e616a"
     id="polygon2"
     transform="translate(-2.3873347e-5,0.0284294)" />
  <path
     d="m 756.93976,609.4693 -9.87816,7.34553 -8.69827,-8.015 2.41922,12.68419 -26.19923,19.48211 a 7.33918,7.33918 0 0 1 -11.32976,-8.24721 l 10.17712,-30.00728 -7.0111,-9.42842 22.98294,-15.05066 z"
     fill="#2f2e41"
     id="path2" />
  <path
     d="m 649.92743,271.06844 c 0,0 32.56879,28.13791 17.542,108.35207 l -18.3454,78.59653 59.8294,99.2561 -19.07664,23.20771 -77.77961,-107.4334 -28.18529,-66.11365 -7.90869,-117.66941 z"
     fill="#2f2e41"
     id="path3" />
  <polygon
     points="603.483,585.365 631.692,580.452 637.083,488.406 599.447,425.746 597.488,456.084 "
     fill="#2f2e41"
     id="polygon3"
     transform="translate(-2.3873347e-5,0.0284294)" />
  <polygon
     points="260.098,569.001 237.443,569.002 237.445,628.211 252.796,628.21 "
     fill="#ffb6b6"
     id="polygon4"
     transform="translate(-2.3873347e-5,0.0284294)" />
  <path
     d="m 233.5296,623.22751 4.32074,-1.8e-4 16.86888,-6.86018 9.0412,6.85913 h 10e-4 a 19.26648,19.26648 0 0 1 19.26564,19.26511 v 0.62605 l -49.49658,0.002 z"
     fill="#2f2e41"
     id="path4" />
  <polygon
     points="332.071,565.772 309.972,560.782 296.932,618.538 311.905,621.918 "
     fill="#ffb6b6"
     id="polygon5"
     transform="translate(-2.3873347e-5,0.0284294)" />
  <path
     d="m 294.21623,612.81468 4.21465,0.9516 17.96568,-2.97583 7.3082,8.68223 10e-4,2.7e-4 a 19.26648,19.26648 0 0 1 14.54854,23.03569 l -0.1379,0.61067 -48.28121,-10.90122 z"
     fill="#2f2e41"
     id="path5" />
  <path
     d="m 218.0032,266.26439 c -7.19708,21.70636 -6.43618,45.268 1.72992,70.55606 l 3.49087,142.37821 c 0,0 -5.20111,93.36873 11.58191,126.2245 h 24.34 l 12.05112,-134.75129 1.5133,-90.44591 52.18244,76.30583 -33.23654,146.68828 29.9568,2.678 53.93408,-159.1909 -66.5439,-154.44278 z"
     fill="#2f2e41"
     id="path6" />
  <path
     d="m 498.6976,204.43626 c 18.61732,-16.77656 46.30893,-25.21208 69.53714,-15.805 a 115.466,115.466 0 0 0 -51.888,59.93484 c -3.6979,9.83846 -6.78644,21.16623 -15.88188,26.43349 -5.65933,3.27753 -12.70027,3.4377 -19.04568,1.85557 -6.34568,-1.58237 -12.16226,-4.75415 -17.89913,-7.89422 l -1.63218,-0.0369 c 7.32779,-23.96582 18.19245,-47.71122 36.80973,-64.48777 z"
     fill="#e6e6e6"
     id="path7"
     style="fill:#524f6b;fill-opacity:1" />
  <path
     d="m 568.10488,189.14081 a 98.69239,98.69239 0 0 0 -54.90628,25.93052 42.50049,42.50049 0 0 0 -8.34534,10.37667 24.37584,24.37584 0 0 0 -2.81751,12.51568 c 0.10054,4.05833 0.67335,8.19792 -0.21438,12.21 a 14.92537,14.92537 0 0 1 -7.42454,9.68865 c -4.54586,2.613 -9.7595,3.43673 -14.886,4.0651 -5.692,0.69769 -11.61526,1.33219 -16.54238,4.5248 -0.597,0.38683 -1.16231,-0.56211 -0.56622,-0.94836 8.57235,-5.5546 19.41969,-3.5335 28.63724,-7.24065 4.30108,-1.72983 8.10691,-4.76631 9.454,-9.35719 1.17794,-4.01452 0.5909,-8.2838 0.45359,-12.39207 a 26.01068,26.01068 0 0 1 2.299,-12.34028 39.29038,39.29038 0 0 1 7.9156,-10.65924 95.74917,95.74917 0 0 1 24.3333,-17.41978 100.44256,100.44256 0 0 1 32.59964,-10.05852 c 0.70319,-0.0907 0.70886,1.01461 0.0103,1.10467 z"
     fill="#fff"
     id="path8"
     style="fill:#7d79a0;fill-opacity:1" />
  <path
     d="m 517.79878,210.21273 a 14.807,14.807 0 0 1 1.63241,-19.1039 c 0.50628,-0.49873 1.30506,0.26457 0.79811,0.764 a 13.71094,13.71094 0 0 0 -1.48216,17.77371 c 0.41512,0.5769 -0.53561,1.13983 -0.94836,0.56623 z"
     fill="#fff"
     id="path9"
     style="fill:#7d79a0;fill-opacity:1" />
  <path
     d="m 501.71376,235.91266 a 28.53932,28.53932 0 0 0 20.3938,-4.08346 c 0.59834,-0.38471 1.16384,0.56412 0.56622,0.94836 a 29.68517,29.68517 0 0 1 -21.23023,4.20607 c -0.70085,-0.12626 -0.42683,-1.19655 0.27021,-1.071 z"
     fill="#fff"
     id="path10"
     style="fill:#7d79a0;fill-opacity:1" />
  <path
     d="m 545.79816,194.36919 a 8.38148,8.38148 0 0 0 6.2686,4.89443 c 0.7021,0.11732 0.42732,1.18753 -0.27021,1.071 a 9.39213,9.39213 0 0 1 -6.94675,-5.39917 0.57084,0.57084 0 0 1 0.19107,-0.7573 0.55506,0.55506 0 0 1 0.75729,0.19107 z"
     fill="#fff"
     id="path11"
     style="fill:#7d79a0;fill-opacity:1" />
  <path
     d="m 593.81284,269.53593 c -0.44048,-0.0608 -0.881,-0.12157 -1.32791,-0.1756 a 110.37862,110.37862 0 0 0 -17.88208,-0.90839 c -0.46221,0.007 -0.93053,0.0205 -1.39159,0.0405 a 116.3646,116.3646 0 0 0 -41.75015,9.61014 113.00482,113.00482 0 0 0 -15.16291,8.0555 c -6.68773,4.23438 -13.602,9.35764 -21.078,11.08459 a 19.38584,19.38584 0 0 1 -2.36217,0.42086 l -30.88864,-26.74546 c -0.0397,-0.096 -0.0858,-0.18531 -0.12584,-0.28162 l -1.28212,-1.01147 c 0.23872,-0.17556 0.49008,-0.35251 0.72879,-0.52808 0.138,-0.10241 0.283,-0.19887 0.421,-0.30128 0.0942,-0.0664 0.18881,-0.13253 0.27,-0.19782 0.0313,-0.0222 0.0629,-0.0441 0.0881,-0.0593 0.0812,-0.0653 0.1636,-0.11732 0.23871,-0.17556 q 2.10345,-1.4895 4.23516,-2.95463 c 0.006,-0.007 0.006,-0.007 0.0191,-0.008 a 166.15689,166.15689 0 0 1 34.601,-18.59939 c 0.36686,-0.13859 0.73948,-0.28453 1.12045,-0.4109 a 107.831,107.831 0 0 1 16.93919,-4.76651 95.32878,95.32878 0 0 1 9.5528,-1.33433 79.272,79.272 0 0 1 24.72335,1.7516 c 16.14332,3.7433 30.90977,12.60785 39.65578,26.43254 0.22361,0.35381 0.4406,0.70193 0.65797,1.0628 z"
     fill="#e6e6e6"
     id="path12"
     style="fill:#524f6b;fill-opacity:1" />
  <path
     d="m 593.40395,269.86784 a 98.69236,98.69236 0 0 0 -59.45156,-12.3533 42.50006,42.50006 0 0 0 -12.91079,3.26072 24.3758,24.3758 0 0 0 -9.78493,8.29673 c -2.36313,3.30088 -4.39808,6.951 -7.52245,9.62 a 14.92533,14.92533 0 0 1 -11.76132,3.26575 c -5.2028,-0.6506 -9.86156,-3.13185 -14.3331,-5.71664 -4.9648,-2.86991 -10.0762,-5.92951 -15.93241,-6.34685 -0.70956,-0.0506 -0.5896,-1.14861 0.11888,-1.09812 10.1888,0.72611 17.633,8.8707 27.22462,11.46035 4.47564,1.20837 9.34256,1.07528 13.18213,-1.77925 3.35754,-2.49617 5.45923,-6.25839 7.82305,-9.62129 a 26.01082,26.01082 0 0 1 9.26529,-8.46889 39.29037,39.29037 0 0 1 12.73777,-3.74506 95.74907,95.74907 0 0 1 29.91669,0.7416 100.44263,100.44263 0 0 1 32.085,11.59611 c 0.616,0.351 -0.0449,1.23688 -0.65689,0.88819 z"
     fill="#fff"
     id="path13"
     style="fill:#7d79a0;fill-opacity:1" />
  <path
     d="m 540.5506,256.40484 a 14.807,14.807 0 0 1 12.80526,-14.27057 c 0.7045,-0.0934 0.88272,0.997 0.17729,1.0905 a 13.711,13.711 0 0 0 -11.88443,13.29895 c -0.0159,0.71056 -1.11391,0.58761 -1.09812,-0.11888 z"
     fill="#fff"
     id="path14"
     style="fill:#7d79a0;fill-opacity:1" />
  <path
     d="m 512.23447,267.2405 a 28.53928,28.53928 0 0 0 18.74183,9.01806 c 0.70936,0.0531 0.58963,1.15113 -0.11888,1.09812 a 29.68518,29.68518 0 0 1 -19.4835,-9.42375 c -0.48357,-0.52277 0.37961,-1.21236 0.86055,-0.69243 z"
     fill="#fff"
     id="path15"
     style="fill:#7d79a0;fill-opacity:1" />
  <path
     d="m 572.44543,260.61223 a 8.38147,8.38147 0 0 0 2.05834,7.68205 c 0.49,0.51638 -0.37378,1.20545 -0.86055,0.69243 a 9.39216,9.39216 0 0 1 -2.29591,-8.49336 0.57082,0.57082 0 0 1 0.6085,-0.48962 0.55506,0.55506 0 0 1 0.48962,0.6085 z"
     fill="#ffffff"
     id="path16" />
  <path
     d="m 51.273216,627.16432 c -1.45,5.44 -5.26,9.97 -9.86,13.27 -0.75,0.54 -1.52,1.04 -2.3,1.51 -0.24,0.14 -0.48,0.29 -0.73,0.42 q -0.405,0.24 -0.81,0.45 h -21.63 c -0.39,-0.79 -0.77,-1.59 -1.15,-2.38 -9.2699999,-19.48 -15.77999987,-40.5 -14.66999987,-61.91 a 79.25417,79.25417 0 0 1 5.16999997,-24.25 c 5.9399999,-15.47 16.7799999,-28.86 31.6899999,-35.6 0.37,-0.17 0.76,-0.34 1.14,-0.5 -0.12,0.43 -0.24,0.85 -0.36,1.28 a 110.78533,110.78533 0 0 0 -3.38,17.59 c -0.06,0.46 -0.11,0.92 -0.15,1.39 a 116.05427,116.05427 0 0 0 3.72,42.69 c 0.01,0.03 0.0199,0.07 0.03,0.1 q 1.27506,4.605 2.96,9.07 c 0.88,2.35 1.83,4.67 2.87,6.95 4.34001,9.57007 10.15995,19.77007 7.46,29.92 z"
     fill="#e6e6e6"
     id="path17"
     style="fill:#524f6b;fill-opacity:1" />
  <path
     d="m 38.393216,518.62439 c -0.21,0.28 -0.42005,0.55 -0.63,0.83 a 98.12885,98.12885 0 0 0 -11.12,18.76 c -0.16,0.33 -0.31,0.66 -0.44,1 a 97.8135,97.8135 0 0 0 -7.82,29.24 1.49,1.49 0 0 0 -0.02,0.21 c -0.25,2.36005 -0.4,4.74 -0.46,7.12 a 42.48011,42.48011 0 0 0 1.43,13.24 23.7688,23.7688 0 0 0 5.46,9.42 c 0.25,0.27 0.5,0.54 0.77,0.8 0.2,0.21 0.42,0.42 0.63,0.62 2.02,1.93 4.23,3.72 6.13,5.79 a 21.43163,21.43163 0 0 1 2.35,3 14.90407,14.90407 0 0 1 1.6,12.1 c -1.36,5.06 -4.47,9.33 -7.65,13.4 -1.59,2.04 -3.23,4.1 -4.65,6.28 -0.51995,0.78 -1,1.57 -1.43994,2.38 h -1.26 c 0.42,-0.81 0.88,-1.6 1.38,-2.38 3.65,-5.75 8.84,-10.69 11.53,-17.02 1.82,-4.26995 2.37,-9.11 0.07,-13.3 a 17.68156,17.68156 0 0 0 -2.43,-3.38 c -1.83,-2.07 -4.02,-3.84 -6.01,-5.71 -0.5,-0.47 -0.99,-0.95 -1.46,-1.45 a 24.96377,24.96377 0 0 1 -5.64,-8.9 39.23028,39.23028 0 0 1 -1.94,-13.13 c 0,-2.84 0.15,-5.7 0.43,-8.54 0.03,-0.36 0.07,-0.73 0.11,-1.1 a 100.76663,100.76663 0 0 1 19.67,-49.23 c 0.2,-0.28 0.41,-0.55 0.62,-0.82 0.42995,-0.56006 1.21993,0.22 0.78994,0.77 z"
     fill="#fff"
     id="path18"
     style="fill:#726f94;fill-opacity:1" />
  <path
     d="m 17.716856,569.09902 a 14.807,14.807 0 0 1 -12.3541999,-14.66278 0.55275,0.55275 0 0 1 1.10455,-0.0242 13.711,13.711 0 0 0 11.5198599,13.616 c 0.70147,0.11439 0.42725,1.18471 -0.27021,1.071 z"
     fill="#fff"
     id="path19"
     style="fill:#726f94;fill-opacity:1" />
  <path
     d="m 24.515596,598.64545 a 28.5393,28.5393 0 0 0 11.53315,-17.308 c 0.15106,-0.69512 1.22186,-0.42407 1.071,0.27021 a 29.68514,29.68514 0 0 1 -12.0379,17.98619 c -0.58485,0.40629 -1.1479,-0.54428 -0.56622,-0.94836 z"
     fill="#fff"
     id="path20"
     style="fill:#726f94;fill-opacity:1" />
  <path
     d="m 26.312346,538.09739 a 8.38149,8.38149 0 0 0 7.89345,-0.97168 c 0.57941,-0.41351 1.14186,0.53754 0.56622,0.94836 a 9.39215,9.39215 0 0 1 -8.72989,1.09429 0.57082,0.57082 0 0 1 -0.40038,-0.67059 0.55507,0.55507 0 0 1 0.6706,-0.40038 z"
     fill="#fff"
     id="path21"
     style="fill:#726f94;fill-opacity:1" />
  <path
     d="m 113.41318,557.29433 c -0.35,0.27 -0.71,0.54 -1.06,0.82 a 110.362,110.362 0 0 0 -13.290004,12 c -0.32,0.33 -0.64,0.67 -0.95,1.01 l -0.01,0.01 a 116.347,116.347 0 0 0 -22.66,36.14 l -0.03,0.09 c -0.01,0.03 -0.02,0.05 -0.03,0.08 a 114.44321,114.44321 0 0 0 -5.03,16.42 c -1.22,5.46 -2.22,11.31 -4.13,16.57 -0.29,0.81 -0.61,1.61 -0.95,2.38 h -44.46 c 0.15,-0.79 0.31,-1.59 0.47,-2.38 a 160.30168,160.30168 0 0 1 10.54,-33.7 c 0.16,-0.36 0.32,-0.72 0.5,-1.08 a 108.30478,108.30478 0 0 1 8.61,-15.35 0.0098,0.0098 0 0 1 0.01,-0.01 94.95585,94.95585 0 0 1 5.8,-7.69 79.11871,79.11871 0 0 1 18.72,-16.24 c 0.04,-0.03 0.09,-0.05 0.13,-0.08 14.04,-8.71 30.68,-12.86 46.590004,-9.27 h 0.01 c 0.41,0.09 0.81002,0.18006 1.22,0.28 z"
     fill="#e6e6e6"
     id="path22"
     style="fill:#524f6b;fill-opacity:1" />
  <path
     d="m 113.36319,557.82439 c -0.34,0.09 -0.68,0.19 -1.01,0.29 a 98.5888,98.5888 0 0 0 -20.170004,8.27 c -0.32,0.17 -0.64,0.35 -0.96,0.53 a 98.25544,98.25544 0 0 0 -23.79,18.59 0.035,0.035 0 0 0 -0.01,0.02 c -0.08,0.08 -0.17,0.17 -0.24,0.25 -1.6,1.72 -3.14,3.51 -4.6,5.35 a 42.769,42.769 0 0 0 -6.82,11.43 23.67365,23.67365 0 0 0 -1.31,10.81 c 0.03,0.37 0.08,0.73 0.13,1.1 0.04,0.29 0.08,0.58 0.13,0.88 0.66,4.01 1.8,8.03 1.48,12.12 a 14.90913,14.90913 0 0 1 -6.01,10.63 23.794,23.794 0 0 1 -3.68,2.34 36.85232,36.85232 0 0 1 -5.77,2.38 h -3.93 c 0.53,-0.15 1.05,-0.3 1.58,-0.45 a 48.21182,48.21182 0 0 0 5.53,-1.93 26.912,26.912 0 0 0 3,-1.48 c 4.02,-2.31 7.37005,-5.85 8.07,-10.58 0.61,-4.14 -0.57,-8.28 -1.27,-12.33 -0.12,-0.7 -0.23,-1.39 -0.29,-2.08 a 24.43856,24.43856 0 0 1 0.85,-10.46 39.0623,39.0623 0 0 1 6.36,-11.66 83.355,83.355 0 0 1 5.48,-6.55 q 0.36,-0.40494 0.75,-0.81 a 100.901,100.901 0 0 1 24.21,-18.73 h 0.01 a 99.28782,99.28782 0 0 1 21.100004,-8.74 h 0.01 c 0.33,-0.1 0.67,-0.2 1,-0.29 0.69002,-0.18006 0.84999,0.91 0.17,1.1 z"
     fill="#fff"
     id="path23"
     style="fill:#726f94;fill-opacity:1" />
  <path
     d="m 66.467596,585.67382 a 14.807,14.807 0 0 1 -1.03613,-19.1455 c 0.43212,-0.5642 1.32915,0.0808 0.89646,0.64574 a 13.711,13.711 0 0 0 1.0002,17.80733 c 0.49121,0.51367 -0.37215,1.20316 -0.86055,0.69243 z"
     fill="#fff"
     id="path24"
     style="fill:#726f94;fill-opacity:1" />
  <path
     d="m 54.107026,613.35831 a 28.53931,28.53931 0 0 0 19.62921,-6.87574 c 0.53912,-0.46406 1.2309,0.397 0.69242,0.86054 a 29.68514,29.68514 0 0 1 -20.44051,7.11332 c -0.71159,-0.0277 -0.58885,-1.12569 0.11888,-1.09812 z"
     fill="#fff"
     id="path25"
     style="fill:#726f94;fill-opacity:1" />
  <path
     d="m 91.995706,566.09583 a 8.38149,8.38149 0 0 0 6.8875,3.97657 c 0.71159,0.0187 0.58807,1.11668 -0.11888,1.09812 a 9.39215,9.39215 0 0 1 -7.62917,-4.38226 0.57083,0.57083 0 0 1 0.0841,-0.77649 0.55507,0.55507 0 0 1 0.77649,0.0841 z"
     fill="#fff"
     id="path26"
     style="fill:#726f94;fill-opacity:1" />
  <path
     d="m 456.38236,173.15812 a 11.59945,11.59945 0 0 1 -17.7667,0.83759 l -37.80039,16.44009 3.682,-21.10161 35.3314,-12.37668 a 11.66235,11.66235 0 0 1 16.55372,16.20061 z"
     fill="#ffb8b8"
     id="path27" />
  <path
     d="m 431.15731,179.74664 -87.7976,39.10831 -0.18835,-0.0674 -100.067,-35.65889 a 32.95966,32.95966 0 0 1 -14.78168,-42.75567 v 0 a 32.92423,32.92423 0 0 1 46.9872,-14.63652 l 74.4685,44.85908 72.21121,-9.35878 z"
     fill="#e6e6e6"
     id="path28"
     style="fill:#4a4760;fill-opacity:1" />
  <path
     d="m 862.7032,643.62439 a 1.1865,1.1865 0 0 1 -1.19,1.19 H 1.2232161 a 1.19,1.19 0 0 1 0,-2.38 H 861.5132 a 1.1865,1.1865 0 0 1 1.19,1.19 z"
     fill="#cccccc"
     id="path29" />
  <path
     d="m 313.34353,296.82491 -88.50585,-14.15674 a 16.89334,16.89334 0 0 1 -9.95557,-23.646 l 4.01367,-8.02832 -1.55908,-84.34668 a 62.48156,62.48156 0 0 1 30.33642,-54.65378 l 8.63086,-5.16064 4.36182,-11.076661 40.22022,0.981 0.11718,14.527341 14.40381,22.96826 -4.9e-4,0.0952 -0.90381,125.01367 -3.96972,12.90137 6.00244,15.00586 z"
     fill="#e6e6e6"
     id="path30"
     style="fill:#524f6b;fill-opacity:1" />
  <circle
     cx="284.45908"
     cy="45.4384"
     r="36.544128"
     fill="#ffb8b8"
     id="circle30" />
  <path
     d="m 246.40545,53.404909 c -1.09,-4.59187 -0.58956,-11.05349 0.0264,-15.677 1.61485,-12.12129 8.3464,-23.64474 18.57336,-30.4704796 a 13.37957,13.37957 0 0 1 6.66453,-2.64845 c 2.41939,-0.101 5.04189,1.19418 5.78465,3.499 a 11.99254,11.99254 0 0 1 6.76552,-6.709 21.1355,21.1355 0 0 1 9.63075,-1.29746 35.19728,35.19728 0 0 1 29.36306,20.9894696 c 0.97609,2.3188 3.70246,-6.24621 4.93916,-4.05528 a 9.7407,9.7407 0 0 0 5.52388,4.85342 c 2.4233,0.67619 3.40756,10.66034 4.3612,8.33222 a 11.0984,11.0984 0 0 1 -10.61055,15.47525 c -2.46642,-0.0923 -4.82489,-0.99947 -7.262,-1.39 -8.71512,-1.39642 -17.96,4.92316 -19.82312,13.55058 a 23.98689,23.98689 0 0 0 -3.15565,-7.021 8.1187,8.1187 0 0 0 -6.51321,-3.57866 c -2.47957,0.0928 -4.6591,1.7139 -6.26793,3.60295 -1.60883,1.88905 -2.81713,4.093 -4.43782,5.97186 -4.7555,5.513 -11.18745,18.3697 -17.96453,17.432 -5.34821,-0.73994 -14.1095,-14.58985 -15.59771,-20.85942 z"
     fill="#2f2e41"
     id="path31" />
  <path
     d="m 505.36398,214.56893 a 7.1328,7.1328 0 0 0 -4.80706,-7.85363 l -98.41317,-32.77709 a 7.13219,7.13219 0 0 0 -2.933,-0.3368 l -24.66687,2.33267 -14.15377,1.34255 -26.11867,2.46833 a 7.15519,7.15519 0 0 0 -6.38357,5.98973 l -13.26135,82.8376 a 7.18646,7.18646 0 0 0 4.48439,7.79592 l 99.4404,38.38442 a 6.94669,6.94669 0 0 0 1.44636,0.38836 7.13621,7.13621 0 0 0 2.17571,0.0165 l 64.25546,-9.52349 a 7.12057,7.12057 0 0 0 6.023,-5.99919 z"
     fill="#fff"
     id="path32"
     style="fill:#7d79a0;fill-opacity:1" />
  <path
     d="m 321.36509,270.53159 99.44009,38.38234 a 0.89711,0.89711 0 0 0 0.457,0.0537 l 64.247,-9.52224 a 0.88347,0.88347 0 0 0 0.7549,-0.75161 l 12.91979,-85.06677 a 0.90469,0.90469 0 0 0 -0.59937,-0.98151 l -0.66169,-0.22392 -97.75762,-32.54588 a 0.67787,0.67787 0 0 0 -0.13742,-0.0332 0.88732,0.88732 0 0 0 -0.23,-0.0119 l -60.16426,5.6932 -4.77428,0.44794 a 0.90314,0.90314 0 0 0 -0.7947,0.74781 l -13.259,82.83439 a 0.89735,0.89735 0 0 0 0.55956,0.97769 z"
     fill="#f9a826"
     id="path33"
     style="fill:#b07b3b;fill-opacity:1" />
  <path
     d="m 339.63354,185.52376 60.16426,-5.6932 a 0.88732,0.88732 0 0 1 0.23,0.0119 0.67787,0.67787 0 0 1 0.13742,0.0332 l 97.75762,32.54588 -25.78658,2.72965 -9.65046,1.01669 -27.46045,2.90123 a 1.939,1.939 0 0 1 -0.24081,-0.003 c -0.0488,-0.0147 -0.0976,-0.0294 -0.15639,-0.0451 z"
     fill="#2f2e41"
     id="path34"
     style="fill:#68638c;fill-opacity:1" />
  <path
     d="m 319.10921,276.37348 99.44009,38.38233 a 6.72242,6.72242 0 0 0 1.4505,0.37968 7.22358,7.22358 0 0 0 2.17727,0.0272 l 64.247,-9.52224 a 7.13521,7.13521 0 0 0 6.02839,-6.00387 l 12.90982,-85.06772 a 7.19014,7.19014 0 0 0 -0.4184,-3.71669 c -0.0653,-0.15688 -0.13072,-0.31384 -0.207,-0.46172 a 6.99031,6.99031 0 0 0 -2.26369,-2.69758 7.13789,7.13789 0 0 0 -1.91579,-0.97662 l -0.11659,-0.0413 -98.29175,-32.73751 a 8.95539,8.95539 0 0 0 -1.22721,-0.29807 7.08573,7.08573 0 0 0 -1.71463,-0.0332 l -24.66295,2.32468 -14.15253,1.35 -26.12314,2.46646 a 7.09173,7.09173 0 0 0 -3.01853,0.99744 1.32948,1.32948 0 0 0 -0.20245,0.12125 1.1922,1.1922 0 0 0 -0.12992,0.0981 7.14818,7.14818 0 0 0 -3.02682,4.76367 l -13.2699,82.84346 a 7.19418,7.19418 0 0 0 4.48823,7.80224 z m 10.54219,-90.35694 a 5.29965,5.29965 0 0 1 1.26984,-2.6713 4.65147,4.65147 0 0 1 0.67571,-0.65875 5.31719,5.31719 0 0 1 2.32365,-1.08389 4.059,4.059 0 0 1 0.50915,-0.0719 l 43.98466,-4.15521 20.96479,-1.995 c 0.14217,-0.0166 0.27254,-0.0142 0.40386,-0.0217 a 5.00673,5.00673 0 0 1 0.94761,0.0704 4.14489,4.14489 0 0 1 0.84467,0.20125 l 98.4084,32.77882 c 0.0777,0.0275 0.14554,0.0541 0.22323,0.0816 a 5.218,5.218 0 0 1 2.27305,1.6537 5.25912,5.25912 0 0 1 1.12074,4.14541 l -12.92068,85.07674 a 5.34916,5.34916 0 0 1 -4.5086,4.50155 l -64.257,9.52134 a 5.41346,5.41346 0 0 1 -2.72281,-0.31038 l -99.441,-38.37237 a 5.40237,5.40237 0 0 1 -3.35921,-5.846 z"
     fill="#3f3d56"
     id="path35" />
  <path
     d="m 330.70376,181.41578 a 0.87724,0.87724 0 0 1 0.268,-0.38623 1.05132,1.05132 0 0 1 0.129,-0.0882 c 0.0417,-0.0161 0.0843,-0.0422 0.12611,-0.0583 a 0.87349,0.87349 0 0 1 0.62383,-0.0107 l 2.06994,0.73016 101.1157,35.66943 23.66513,-2.5004 13.24288,-1.39675 28.02932,-2.96742 2.50639,-0.26279 0.48732,-0.0539 a 0.9043,0.9043 0 0 1 0.95216,0.65352 0.73938,0.73938 0 0 1 0.0265,0.14313 0.893,0.893 0 0 1 -0.55014,0.92188 0.98843,0.98843 0 0 1 -0.24752,0.0667 l -3.40944,0.35738 -27.60268,2.91775 -9.65046,1.01669 -27.46045,2.90123 a 1.939,1.939 0 0 1 -0.24081,-0.003 c -0.0488,-0.0147 -0.0976,-0.0294 -0.15639,-0.0451 l -103.03119,-36.33461 -0.3498,-0.1238 a 0.67025,0.67025 0 0 1 -0.21942,-0.12146 0.91016,0.91016 0 0 1 -0.32397,-1.02545 z"
     fill="#3f3d56"
     id="path36" />
  <path
     d="m 420.27065,315.39595 a 0.89376,0.89376 0 0 1 -0.74251,-1.01574 l 14.51687,-96.33414 a 0.894,0.894 0 0 1 1.017,-0.75056 l 0.008,0.001 a 0.89377,0.89377 0 0 1 0.74252,1.01574 l -14.51687,96.33414 a 0.894,0.894 0 0 1 -1.017,0.75055 z"
     fill="#3f3d56"
     id="path37" />
  <path
     d="m 457.0676,309.28481 -9.6548,1.01888 11.29337,-95.5347 c 0,0 12.89458,-2.33464 13.23951,-1.39846 0.21223,0.55894 -14.78603,95.30152 -14.87808,95.91428 z"
     fill="#3f3d56"
     id="path38" />
  <polygon
     points="408.116,255.488 435.813,218.284 331.25,182.533 330.99,226.1 "
     fill="#3f3d56"
     id="polygon38"
     transform="translate(-2.3873347e-5,0.0284294)" />
  <path
     d="m 502.48304,210.14604 a 5.30105,5.30105 0 0 0 -2.49688,-1.73654 l -98.40594,-32.7777 a 5.10582,5.10582 0 0 0 -0.848,-0.20665 5.00894,5.00894 0 0 0 -0.95065,-0.0711 l 0.15966,-0.99731 0.98511,-0.71323 23.36822,-16.9188 78.04053,23.91705 0.13549,27.05154 z"
     fill="#3f3d56"
     id="path39" />
  <path
     d="m 335.1806,252.50102 a 1.51326,1.51326 0 0 1 0.326,0.0684 l 30.19365,9.91686 a 1.5001406,1.5001406 0 0 1 -0.93555,2.85069 l -30.19364,-9.91685 a 1.50039,1.50039 0 0 1 0.60952,-2.91913 z"
     fill="#ffffff"
     id="path40" />
  <circle
     cx="457.0032"
     cy="423.26437"
     r="12"
     fill="#f2f2f2"
     id="circle40"
     style="fill:#2f2e41;fill-opacity:1" />
  <circle
     cx="151.00319"
     cy="467.26437"
     r="12"
     fill="#f2f2f2"
     id="circle41"
     style="fill:#2f2e41;fill-opacity:1" />
  <circle
     cx="401.0032"
     cy="70.264359"
     r="12"
     fill="#f2f2f2"
     id="circle42"
     style="fill:#2f2e41;fill-opacity:1" />
  <path
     d="m 420.69184,270.14991 a 11.59947,11.59947 0 0 1 -15.90724,-7.95712 l -41.012,-4.14348 13.53022,-16.60628 36.87128,6.48065 a 11.66236,11.66236 0 0 1 6.5177,22.22623 z"
     fill="#ffb8b8"
     id="path42" />
  <path
     d="m 395.4666,263.56221 -95.70849,-8.81836 -0.13135,-0.15088 -69.85061,-80.03658 a 32.95967,32.95967 0 0 1 8.01319,-44.52344 v 0 a 32.92425,32.92425 0 0 1 48.14355,10.209 l 43.02246,75.54443 67.56543,27.147 z"
     fill="#e6e6e6"
     id="path43"
     style="fill:#575370;fill-opacity:1" />
  <path
     d="M 635.69019,109.64515 C 633.31331,92.211279 630.33231,73.493429 618.03608,60.908249 a 41.34992,41.34992 0 0 0 -59.74384,0.61837 c -8.95079,9.54876 -12.90365,22.95672 -13.2654,36.03983 -0.36175,13.083111 2.55205,26.020811 5.78442,38.703471 a 119.28958,119.28958 0 0 0 49.78577,-9.79937 c 3.92617,-1.70407 7.789,-3.63056 11.93689,-4.68634 4.14784,-1.05571 7.10454,1.60088 10.96292,3.45335 l 2.118,-4.05545 c 1.73377,3.22659 7.10244,2.27017 9.04978,-0.83224 1.94705,-3.1024 1.5205,-7.07548 1.02557,-10.70472 z"
     fill="#2f2e41"
     id="path44" />
  <path
     d="m 567.8836,206.95383 -69.876,1.49441 a 11.05455,11.05455 0 1 0 -4.93974,15.57383 c 9.26761,0.52674 81.77191,10.81733 86.0974,4.18549 4.39027,-6.73106 27.82423,-30.48612 27.82423,-30.48612 l -18.01271,-25.64378 z"
     fill="#9e616a"
     id="path45" />
  <circle
     cx="584.91095"
     cy="94.063675"
     r="32.83012"
     fill="#9e616a"
     id="circle45" />
  <path
     d="M 430.71307,171.60539"
     fill="#f9a826"
     id="path46" />
  <path
     d="m 637.49355,157.23214 c -3.86888,-7.69981 -5.74873,-17.212 -13.99671,-19.70823 -5.56965,-1.68563 -28.09691,0.84048 -33.17312,3.6859 -8.44356,4.73313 -0.79189,13.60234 -5.77332,21.90214 -5.41517,9.02271 -20.132,27.12978 -25.5472,36.15241 -3.72279,6.20279 8.8171,24.40947 6.80408,31.358 -2.01273,6.94848 -2.10962,14.74736 1.31952,21.11722 3.06888,5.70141 -1.37137,10.745 1.71521,16.437 3.20957,5.91962 7.14849,28.05274 4.16119,34.08785 l -2,6 c 19.84682,1.16609 36.53459,-22.54427 56.25813,-25.04188 4.89894,-0.62032 9.98565,-1.43073 14.02251,-4.27435 5.94639,-4.18864 8.29717,-11.78923 9.76638,-18.91282 A 159.32576,159.32576 0 0 0 637.49355,157.23214 Z"
     fill="#3f3d56"
     id="path47" />
  <path
     d="m 667.24953,238.53384 c -2.76443,-7.54563 -7.769,-40.5366 -7.769,-40.5366 l -31.32417,-0.91848 15.31443,37.772 -41.79036,58.50283 c 0,0 0.0774,0.12853 0.21808,0.35778 a 11.052,11.052 0 1 0 9.26964,11.74483 0.76305,0.76305 0 0 0 0.95807,-0.16445 c 4.65003,-5.83536 57.88774,-59.21221 55.12331,-66.75791 z"
     fill="#9e616a"
     id="path48" />
  <path
     d="m 670.4342,217.6988 c -2.87511,-12.13478 -5.77152,-24.33549 -10.61887,-35.82566 -4.84735,-11.49017 -11.78661,-22.34286 -21.54669,-30.10543 -3.12048,-2.48179 -6.609,-4.67232 -10.52078,-5.44389 -3.91147,-0.77165 -8.31967,0.0919 -11.0667,2.98137 -4.39621,4.62357 -3.07339,12.0451 -1.4611,18.21781 q 7.13154,27.30063 14.26277,54.60125 20.59418,-2.18287 41.188,-4.36591 z"
     fill="#3f3d56"
     id="path49" />
  <path
     d="m 625.1387,98.617309 c -1.20908,-7.942 -2.47188,-15.95043 -5.31228,-23.42857 -2.8404,-7.47821 -7.41882,-14.48249 -13.98647,-18.71882 -10.39879,-6.70709 -23.862,-5.41352 -35.52074,-1.55544 -9.01622,2.9837 -17.81761,7.51864 -24.17574,14.8093 -6.35848,7.29074 -9.92957,17.69379 -7.56439,27.22665 q 18.65464,-4.40738 37.30893,-8.81483 l -1.36137,0.962 a 30.03765,30.03765 0 0 1 16.03083,20.892701 31.12209,31.12209 0 0 1 -6.56554,25.84773 q 12.72244,-4.51323 25.44489,-9.0263 c 5.23526,-1.85713 10.83833,-3.997 13.94267,-8.76047 3.59934,-5.52287 2.76302,-12.84302 1.75921,-19.433951 z"
     fill="#2f2e41"
     id="path50" />
</svg>
