<?xml version="1.0" encoding="UTF-8" standalone="no"?>
<!-- Created with Inkscape (http://www.inkscape.org/) -->

<svg
   width="497.21283mm"
   height="44.360085mm"
   viewBox="0 0 497.21283 44.360085"
   version="1.1"
   id="svg1"
   xmlns:inkscape="http://www.inkscape.org/namespaces/inkscape"
   xmlns:sodipodi="http://sodipodi.sourceforge.net/DTD/sodipodi-0.dtd"
   xmlns="http://www.w3.org/2000/svg"
   xmlns:svg="http://www.w3.org/2000/svg">
  <sodipodi:namedview
     id="namedview1"
     pagecolor="#505050"
     bordercolor="#eeeeee"
     borderopacity="1"
     inkscape:showpageshadow="0"
     inkscape:pageopacity="0"
     inkscape:pagecheckerboard="0"
     inkscape:deskcolor="#505050"
     inkscape:document-units="mm" />
  <defs
     id="defs1" />
  <g
     inkscape:label="Warstwa 1"
     inkscape:groupmode="layer"
     id="layer1"
     transform="translate(1557.6897,-47.021839)">
    <g
       id="g36"
       style="display:inline"
       transform="matrix(0.16369852,0,0,0.16369852,-1509.9203,119.6325)">
      <path
         fill="#182c3f"
         d="M 96.885496,-173.34976 C 38.267613,-185.54828 -9.7930328,-243.65098 -6.9409078,-306.80516 -6.7637288,-396.17573 71.365182,-452.39288 143.3286,-442.42231 c 53.40307,5.5692 112.18469,47.01924 119.22057,115.56052 8.42939,74.16852 -35.487,133.74737 -98.61712,152.74001 -13.49446,4.05878 -21.8168,0.46354 -22.09345,-14.88968 -0.53921,-32.39693 -0.74482,-64.79388 -0.61701,-97.19082 0.10624,-24.46315 -24.98815,-28.05873 -25.62673,-3.30885 -0.89393,33.85283 -1.41888,67.713 -1.57503,101.5805 -0.0641,11.71322 -6.44919,16.80881 -17.134064,14.58087 z M 71.961254,-326.41543 c -1.298378,-4.10288 -6.449286,-15.68378 -12.536722,-8.95586 -13.153823,14.58087 5.95972,25.98528 2.213695,33.99254 -5.725587,12.24263 -4.789149,30.06606 6.321479,39.13223 7.300609,5.9559 15.112085,1.83092 18.772995,-5.80142 14.367079,-29.97786 25.477709,-54.57333 39.461739,-77.40415 1.27699,-2.10296 2.51155,-2.07351 3.70342,0.0884 14.14722,25.73521 27.11664,51.63953 38.90836,77.71295 7.04518,15.59558 22.4553,7.58824 26.26523,-4.87499 3.22108,-10.58819 2.49738,-21.04402 -2.1711,-31.36749 -0.28639,-0.64791 -0.18683,-1.40541 0.25508,-1.94123 7.9604,-9.86019 12.3025,-24.28665 0.0244,-31.7866 -1.31968,-0.80882 -2.3981,-0.54397 -3.23534,0.79453 l -6.91746,11.0294 c -0.45427,0.72056 -0.8729,0.69832 -1.25578,-0.0667 -8.20166,-16.52938 -16.69423,-32.89698 -25.47771,-49.10282 -7.00266,-12.92643 -18.36863,-23.77934 -33.01246,-21.06609 -13.40925,2.49264 -21.41235,15.04408 -27.499785,27.26461 -6.967099,13.99999 -14.147122,28.18376 -21.539976,42.5513 -0.502472,1.0204 -1.946347,0.8946 -2.277418,-0.19842 z"
         id="path119-8"
         style="fill:#ebebeb;fill-opacity:1;stroke-width:2.16682"
         sodipodi:nodetypes="sccccccccssccccccccccccccccccccc" />
      <path
         style="font-size:266.667px;line-height:1;font-family:'Rubik Mono One';-inkscape-font-specification:'Rubik Mono One';letter-spacing:0px;word-spacing:0px;white-space:pre;fill:#ebebeb;stroke-width:0.861732;stroke-linecap:round;stroke-linejoin:round"
         d="m 2237.9228,-427.25206 c -4.4903,0.13796 -8.4232,4.30894 -8.2539,8.80898 0.01,73.72025 -0.01,147.44076 0.01,221.16084 0.049,4.54722 4.2599,8.57968 8.8109,8.40518 72.1246,-0.004 144.2494,0.009 216.3738,-0.006 4.5482,-0.0467 8.5776,-4.26176 8.4071,-8.81228 -0.01,-16.19058 0.016,-32.38156 -0.012,-48.57188 -0.1396,-4.48843 -4.3071,-8.42367 -8.807,-8.25195 -45.4576,0 -90.9152,0 -136.3727,0 -0.6327,-0.35412 -0.5561,-1.002 -0.5293,-1.6293 0,-6.81692 0,-13.63385 0,-20.45078 0.3541,-0.63266 1.002,-0.55613 1.6293,-0.5293 37.8499,-0.007 75.7002,0.0138 113.5499,-0.0103 4.4756,-0.1035 8.4207,-4.2298 8.3071,-8.71036 -0.012,-15.00188 0.025,-30.00477 -0.018,-45.00602 -0.1896,-4.44981 -4.3373,-8.32264 -8.8003,-8.15413 -38.0461,0 -76.0922,0 -114.1383,0 -0.6327,-0.35413 -0.5561,-1.00201 -0.5293,-1.6293 0,-6.81693 0,-13.63386 0,-20.45078 0.3541,-0.63267 1.002,-0.55613 1.6293,-0.5293 44.1392,-0.007 88.2786,0.013 132.4176,-0.01 4.4523,-0.1416 8.3677,-4.24485 8.2519,-8.70898 -0.011,-16.25774 0.023,-32.51644 -0.017,-48.77357 -0.192,-4.45168 -4.3406,-8.31729 -8.8038,-8.15221 -70.9832,0.005 -141.9668,-0.0103 -212.9499,0.008 l -0.1,0.003 z"
         id="path27" />
      <path
         d="m 1810.8111,-427.26321 c -31.2078,0.008 -62.4156,-0.0159 -93.6233,0.0114 0,0 -5e-4,0 -5e-4,0 -0.9815,0.018 -1.9758,0.10837 -2.9569,0.2806 -0.9813,0.17226 -1.9498,0.42679 -2.8789,0.77308 -0.9291,0.34629 -1.819,0.78443 -2.6443,1.32447 -0.4126,0.27002 -0.8089,0.56513 -1.186,0.88728 -0.377,0.32216 -0.7347,0.67125 -1.0697,1.048 -0.4716,0.50567 -0.888,1.04956 -1.2588,1.62161 -0.3708,0.57204 -0.6962,1.17238 -0.9865,1.7911 -0.2903,0.61873 -0.5456,1.25597 -0.7757,1.90169 -0.2301,0.64572 -0.4351,1.29983 -0.6252,1.95286 -24.7867,72.66375 -49.5848,145.32431 -74.3645,217.99031 -0.1479,0.68939 -0.2693,1.40922 -0.2971,2.12752 -0.014,0.35914 0,0.7179 0.037,1.07228 0.041,0.35438 0.1144,0.70432 0.2274,1.04593 0.1551,0.40532 0.3419,0.80185 0.5602,1.17978 0.2183,0.37792 0.468,0.73718 0.7493,1.06763 0.2813,0.33045 0.5942,0.63215 0.9384,0.89504 0.3443,0.26288 0.7201,0.48674 1.1271,0.66197 0.5477,0.28134 1.1161,0.46306 1.6976,0.57878 0.5815,0.11571 1.1763,0.16572 1.7761,0.18345 1.1995,0.0355 2.4197,-0.0576 3.5993,-0.008 20.5354,-0.008 41.0718,0.0154 61.6071,-0.0119 0.6488,-0.0204 1.2953,-0.0762 1.9352,-0.17054 0.64,-0.0943 1.2729,-0.22677 1.895,-0.40101 0.6221,-0.17423 1.2334,-0.38997 1.8288,-0.65008 0.5955,-0.26012 1.1754,-0.56476 1.7353,-0.91674 0.4434,-0.27663 0.8761,-0.58834 1.2945,-0.92863 0.4185,-0.34029 0.8223,-0.70928 1.2072,-1.10019 0.7698,-0.78183 1.4645,-1.65187 2.049,-2.55798 0.5438,-0.81913 1.0102,-1.67529 1.4257,-2.5554 0.4155,-0.88012 0.7801,-1.78438 1.1204,-2.69958 0.6805,-1.83039 1.2633,-3.70481 1.9611,-5.52008 2.1089,-5.90347 4.2178,-11.80707 6.3267,-17.71054 0.1509,-0.15739 0.3219,-0.25147 0.5054,-0.30593 0.1835,-0.0545 0.3795,-0.0695 0.5809,-0.0677 0.4027,0.004 0.8264,0.0735 1.2118,0.0222 h 81.6627 c 0.1987,0.0895 0.3449,0.21899 0.4578,0.37362 0.113,0.15462 0.1929,0.33427 0.2589,0.52451 0.1321,0.38049 0.2093,0.80249 0.3871,1.14825 2.7495,7.64614 5.4354,15.31636 8.2248,22.94744 0.401,0.99443 0.8754,1.97609 1.4253,2.91507 0.5498,0.93897 1.1749,1.83546 1.8774,2.65978 0.7024,0.82433 1.4822,1.57678 2.3409,2.22726 0.4294,0.32523 0.8786,0.62487 1.3477,0.89555 0.4692,0.27068 0.9583,0.51217 1.4676,0.72089 0.6085,0.264 1.2266,0.47264 1.8532,0.63613 0.6265,0.1635 1.2614,0.28207 1.9027,0.36535 1.2825,0.16657 2.591,0.19271 3.9119,0.1602 21.2031,-0.009 42.4069,0.0182 63.6095,-0.0139 0.526,-0.011 1.0391,-0.0953 1.5317,-0.24185 0.4926,-0.14656 0.965,-0.35526 1.4098,-0.61443 0.4447,-0.25917 0.8614,-0.56897 1.2438,-0.91777 0.3824,-0.3488 0.7305,-0.73642 1.0361,-1.15187 0.2247,-0.26596 0.4297,-0.55144 0.6083,-0.85163 0.1785,-0.30019 0.3301,-0.61537 0.4475,-0.94154 0.1173,-0.32618 0.2008,-0.66327 0.2418,-1.00718 0.041,-0.3439 0.04,-0.69462 -0.01,-1.04799 -2e-4,-0.51925 -0.064,-1.0252 -0.1695,-1.52291 -0.1051,-0.49771 -0.2508,-0.98689 -0.4145,-1.47226 -0.3272,-0.97074 -0.7253,-1.92605 -1.0092,-2.90267 -24.434,-71.63055 -48.8805,-143.25722 -73.3066,-214.89024 -0.2441,-0.92967 -0.567,-1.85033 -0.969,-2.73575 -0.4019,-0.88542 -0.883,-1.73594 -1.4433,-2.52543 -0.5603,-0.78948 -1.1996,-1.51768 -1.9187,-2.15955 -0.3596,-0.32094 -0.7391,-0.6207 -1.1385,-0.89504 -0.3993,-0.27434 -0.8185,-0.52336 -1.2578,-0.74466 -0.7901,-0.42202 -1.6126,-0.74741 -2.4561,-0.99684 -0.8436,-0.24942 -1.7087,-0.42283 -2.5844,-0.54105 -0.8757,-0.11822 -1.762,-0.1814 -2.6484,-0.2098 -0.8865,-0.0284 -1.7731,-0.0221 -2.6489,-0.002 z m -45.8381,65.31798 h 1 c 8.095,23.71611 16.1898,47.4325 24.2848,71.14862 -0.066,0.17257 -0.1507,0.30889 -0.2512,0.41497 -0.1004,0.10607 -0.2168,0.18165 -0.3457,0.23254 -0.2577,0.10178 -0.5662,0.10483 -0.9028,0.0537 h -47.5722 c -0.1415,-0.11876 -0.243,-0.24354 -0.3106,-0.3731 -0.068,-0.12956 -0.1016,-0.26404 -0.108,-0.40256 -0.013,-0.27704 0.084,-0.56993 0.2413,-0.87178 7.988,-23.40067 15.9764,-46.80178 23.9644,-70.20243 z"
         style="font-size:266.667px;line-height:1;font-family:'Rubik Mono One';-inkscape-font-specification:'Rubik Mono One';letter-spacing:0px;word-spacing:0px;white-space:pre;fill:#ebebeb;stroke-width:0.861732;stroke-linecap:round;stroke-linejoin:round"
         id="path31" />
      <path
         style="font-size:266.667px;line-height:1;font-family:'Rubik Mono One';-inkscape-font-specification:'Rubik Mono One';letter-spacing:0px;word-spacing:0px;white-space:pre;fill:#ebebeb;stroke-width:0.861732;stroke-linecap:round;stroke-linejoin:round"
         d="m 1338.0371,-427.24698 c -4.489,0.13779 -8.4248,4.30826 -8.2539,8.80703 0,73.72092 -0.01,147.44202 0.01,221.16282 0.048,4.54665 4.2616,8.58007 8.8123,8.40515 20.7517,-0.007 41.5038,0.013 62.2554,-0.01 4.4868,-0.13998 8.4221,-4.30972 8.252,-8.80703 0,-35.30976 0,-70.61953 0,-105.9293 0.4623,-0.58587 1.1921,-0.30458 1.3184,0.38413 8.3758,16.5082 16.7302,33.0302 25.1191,49.52994 1.4184,2.1287 3.3631,3.88366 5.4651,5.32017 2.8339,1.80603 6.2875,2.15998 9.5724,2.04506 7.5189,-0.0178 15.0392,0.0356 22.5573,-0.0266 3.6387,-0.25357 7.3185,-1.55718 9.9632,-4.13631 1.9666,-1.76552 3.1013,-4.18679 4.2507,-6.51291 7.9153,-15.61457 15.8306,-31.22913 23.746,-46.8437 0.6774,-0.30945 1.2008,0.26847 1.0019,0.94023 0.01,35.26402 -0.016,70.52843 0.012,105.79219 0.135,4.48948 4.3091,8.42494 8.8071,8.25391 20.7518,-0.007 41.5038,0.013 62.2554,-0.01 4.4868,-0.13998 8.4221,-4.3097 8.252,-8.80703 0,-73.72092 0.01,-147.44202 -0.01,-221.16282 -0.047,-4.54982 -4.263,-8.5785 -8.8143,-8.4071 -21.0566,0.01 -42.1136,-0.0194 -63.1698,0.0146 -2.9946,0.0837 -6.0065,1.03868 -8.3611,2.80184 -2.8248,2.03812 -4.6757,5.00943 -6.2493,8.07559 -14.5855,26.72155 -29.171,53.44309 -43.7565,80.16464 -0.6988,0.14972 -1.1682,-0.087 -1.3609,-0.78998 -14.8963,-27.27335 -29.7627,-54.56345 -44.6777,-81.82633 -1.5353,-2.61979 -3.5574,-4.9483 -6.2192,-6.48721 -1.5232,-0.8872 -3.4089,-1.53438 -5.2343,-1.77866 -2.7854,-0.33719 -5.6015,-0.10611 -8.4001,-0.17446 -19.0476,0.008 -38.0956,-0.0156 -57.143,0.0117 z"
         id="path24" />
      <path
         style="font-size:266.667px;line-height:1;font-family:'Rubik Mono One';-inkscape-font-specification:'Rubik Mono One';letter-spacing:0px;word-spacing:0px;white-space:pre;fill:#ebebeb;stroke-width:0.861732;stroke-linecap:round;stroke-linejoin:round"
         d="m 879.12109,-427.25047 c -4.45336,0.13824 -8.37092,4.24425 -8.2539,8.70898 0.005,73.75358 -0.0104,147.50743 0.008,221.26084 0.0466,4.51148 4.19674,8.52412 8.71096,8.40518 72.15789,-0.004 144.31595,0.009 216.47375,-0.006 4.546,-0.0476 8.5787,-4.26112 8.4051,-8.81033 -0.011,-16.22505 0.023,-32.45107 -0.017,-48.67552 -0.191,-4.44813 -4.3378,-8.31844 -8.7999,-8.15026 -38.6972,0.006 -77.395,-0.0121 -116.09192,0.009 -1.36145,0.0653 -2.24916,1.46963 -2.21428,2.70306 -0.44671,5.04196 -2.9021,9.98689 -7.05886,12.97298 -2.66668,1.93794 -5.89864,3.19354 -9.2047,3.32055 -1.53483,-0.11569 -2.53434,-1.72828 -2.33214,-3.18145 0,-12.63477 0,-25.26953 0,-37.9043 0.35413,-0.63266 1.00201,-0.55613 1.6293,-0.5293 37.84991,-0.007 75.7002,0.0139 113.5499,-0.0104 4.474,-0.10312 8.4217,-4.2292 8.3052,-8.70836 -0.011,-15.00319 0.023,-30.00733 -0.017,-45.00991 -0.1899,-4.44823 -4.3376,-8.32098 -8.7999,-8.1522 -38.0461,0 -76.09221,0 -114.1383,0 -0.63266,-0.35413 -0.55613,-1.00201 -0.5293,-1.6293 0,-6.81693 0,-13.63386 0,-20.45078 0.35413,-0.63267 1.00201,-0.55613 1.6293,-0.5293 44.1391,-0.007 88.2786,0.013 132.4176,-0.01 4.4527,-0.14183 8.3688,-4.2461 8.2519,-8.71093 -0.01,-16.22326 0.016,-32.44692 -0.012,-48.66992 -0.1356,-4.49078 -4.31,-8.42294 -8.809,-8.25391 -70.9832,0.005 -141.96677,-0.0103 -212.94987,0.008 l -0.1,0.003 z"
         id="path23" />
      <path
         style="font-size:266.667px;line-height:1;font-family:'Rubik Mono One';-inkscape-font-specification:'Rubik Mono One';letter-spacing:0px;word-spacing:0px;white-space:pre;fill:#ebebeb;stroke-width:0.861732;stroke-linecap:round;stroke-linejoin:round"
         d="m 590.62165,-427.25177 c -4.4904,0.13706 -8.42407,4.30847 -8.25586,8.80898 0.008,18.47052 -0.0156,36.94145 0.0117,55.41172 0.1398,4.48988 4.30865,8.42297 8.80898,8.25391 30.83516,0.005 61.67032,-2.8e-4 92.50547,-0.0156 0.54846,0.34784 0.58587,0.88882 0.47707,1.47669 -0.26147,3.63083 -0.94648,7.55727 -3.55012,10.29362 -2.31448,2.44172 -5.80528,3.01523 -8.99354,3.38438 -2.18871,0.28505 -4.44149,0.49083 -6.47833,1.40391 0.007,47.03512 -0.013,94.07052 0.01,141.10546 0.1405,4.48633 4.30846,8.4238 8.80704,8.25196 23.60269,-0.007 47.20567,0.013 70.8082,-0.01 4.48677,-0.13991 8.42191,-4.30934 8.25195,-8.80703 0,-52.18476 0,-104.36953 0,-156.5543 0.35412,-0.63266 1.002,-0.55613 1.6293,-0.52929 24.2993,-0.008 48.599,0.0156 72.89804,-0.0117 4.48824,-0.13696 8.4237,-4.30831 8.25196,-8.80703 -0.011,-18.50502 0.022,-37.01093 -0.0165,-55.5154 -0.19227,-4.45004 -4.33839,-8.31933 -8.80223,-8.15218 -78.73717,0.005 -157.47462,-0.0104 -236.21162,0.008 l -0.1,0.003 z"
         id="path22" />
      <path
         style="font-size:266.667px;line-height:1;font-family:'Rubik Mono One';-inkscape-font-specification:'Rubik Mono One';letter-spacing:0px;word-spacing:0px;white-space:pre;fill:#ebebeb;stroke-width:0.861732;stroke-linecap:round;stroke-linejoin:round"
         d="m 1947.7765,-427.25177 c -4.4904,0.13706 -8.424,4.30847 -8.2558,8.80898 0.01,18.47052 -0.016,36.94145 0.012,55.41172 0.1398,4.48988 4.3086,8.42297 8.809,8.25391 30.8351,0.005 61.6703,-2.8e-4 92.5054,-0.0156 0.5485,0.34784 0.5859,0.88882 0.4771,1.47669 -0.2615,3.63083 -0.9465,7.55727 -3.5501,10.29362 -2.3145,2.44172 -5.8053,3.01523 -8.9936,3.38438 -2.1887,0.28505 -4.4415,0.49083 -6.4783,1.40391 0.01,47.03512 -0.013,94.07052 0.01,141.10546 0.1405,4.48633 4.3085,8.4238 8.807,8.25196 23.6027,-0.007 47.2057,0.013 70.8082,-0.01 4.4868,-0.13991 8.422,-4.30934 8.252,-8.80703 0,-52.18476 0,-104.36953 0,-156.5543 0.3541,-0.63266 1.002,-0.55613 1.6293,-0.52929 24.2993,-0.008 48.599,0.0156 72.898,-0.0117 4.4883,-0.13696 8.4237,-4.30831 8.252,-8.80703 -0.011,-18.50502 0.022,-37.01093 -0.017,-55.5154 -0.1923,-4.45004 -4.3384,-8.31933 -8.8022,-8.15218 -78.7372,0.005 -157.4747,-0.0104 -236.2117,0.008 l -0.1,0.003 z"
         id="path22-5" />
      <path
         style="font-size:266.667px;line-height:1;font-family:'Rubik Mono One';-inkscape-font-specification:'Rubik Mono One';letter-spacing:0px;word-spacing:0px;white-space:pre;fill:#ebebeb;stroke-width:0.861732;stroke-linecap:round;stroke-linejoin:round"
         d="m 306.90016,-428.95713 c -4.4888,0.1388 -8.42427,4.30676 -8.25391,8.80703 0.007,44.13487 -0.0146,88.26986 0.0109,132.40466 0.1603,13.62548 1.99252,27.29571 6.78982,40.12556 4.00945,10.77104 10.24658,20.72987 18.51646,28.77144 6.8734,6.72787 15.0063,12.00127 23.54529,16.34373 12.3904,6.24678 25.81893,10.17678 39.42094,12.49852 14.19044,2.40928 28.60502,3.11327 43.0045,2.75047 10.96322,-0.30798 21.88726,-1.3373 32.67299,-3.40649 6.37905,-1.2438 12.83502,-2.87437 19.02172,-4.94779 12.76876,-4.2474 24.96633,-10.53742 35.40946,-19.06507 9.14404,-7.47806 16.41018,-17.0728 21.25494,-27.82099 5.6361,-12.40832 8.1655,-26.0052 8.81769,-39.50935 0.32571,-6.99186 0.13005,-13.99387 0.18369,-20.99039 -0.007,-39.22192 0.0138,-78.44419 -0.0103,-117.66589 -0.10326,-4.5122 -4.29404,-8.47628 -8.81036,-8.30716 -23.94318,0.008 -47.88676,-0.0156 -71.82969,0.0117 -4.48917,0.13876 -8.42566,4.30809 -8.25391,8.80898 -0.007,45.63853 0.013,91.2772 -0.01,136.91563 -0.0921,6.11033 -1.80793,12.36607 -5.74845,17.13847 -4.35149,5.28063 -10.65046,8.71539 -17.26712,10.23963 -6.33353,1.47937 -12.93014,1.63485 -19.38022,0.95113 -7.28168,-0.82888 -14.61804,-3.29567 -20.15109,-8.2472 -4.28385,-3.857 -6.94696,-9.29817 -7.81793,-14.96101 -0.73706,-4.46504 -0.37995,-9.00563 -0.46527,-13.50774 -0.007,-43.03252 0.013,-86.06531 -0.01,-129.09766 -0.14133,-4.49 -4.3111,-8.42069 -8.81093,-8.25195 -23.94318,0.008 -47.88677,-0.0156 -71.82969,0.0117 z"
         id="path21" />
      <path
         d="m -149.74228,-427.26684 c -44.55355,-4.6e-4 -89.1077,-0.0114 -133.66109,0.005 l -0.0997,0.003 -0.0537,0.002 c -0.55666,0.0173 -1.10454,0.0968 -1.63763,0.23099 -0.53309,0.13422 -1.05134,0.32311 -1.54719,0.56017 -0.49585,0.23707 -0.96944,0.5222 -1.41438,0.84801 -0.44495,0.32582 -0.86091,0.69249 -1.24127,1.09296 -0.38037,0.40047 -0.72521,0.83502 -1.02733,1.29605 -0.30212,0.46102 -0.56185,0.94876 -0.77205,1.45624 -0.2102,0.50748 -0.37081,1.03422 -0.47542,1.57406 -0.10461,0.53984 -0.15313,1.09245 -0.13849,1.65055 0.005,73.7535 -0.0101,147.50757 0.008,221.26091 0.006,0.56848 0.0766,1.12917 0.20515,1.67432 0.12853,0.54514 0.31452,1.07494 0.55087,1.58233 0.23635,0.50739 0.52295,0.99223 0.85215,1.44746 0.32919,0.45522 0.70088,0.88052 1.10794,1.26917 0.40706,0.38865 0.84934,0.74034 1.3193,1.048 0.46995,0.30766 0.96783,0.57167 1.4857,0.78393 0.51786,0.21226 1.05582,0.37298 1.60662,0.47542 0.5508,0.10245 1.11434,0.14632 1.6831,0.12454 24.74265,-0.007 49.48555,0.0132 74.22803,-0.01 0.56091,-0.0174 1.11332,-0.0979 1.65002,-0.23409 0.53671,-0.13617 1.05788,-0.32801 1.5565,-0.56844 0.49861,-0.24044 0.97444,-0.52967 1.4211,-0.8599 0.44666,-0.33022 0.86406,-0.70136 1.24489,-1.10691 0.38082,-0.40554 0.72517,-0.84515 1.02629,-1.31154 0.30112,-0.4664 0.55882,-0.96 0.76636,-1.47278 0.20754,-0.51278 0.365,-1.04488 0.46509,-1.58957 0.10009,-0.54469 0.14319,-1.10185 0.12195,-1.66398 v -66.93338 c 0.0885,-0.15817 0.19541,-0.27158 0.31575,-0.35295 0.12034,-0.0814 0.25403,-0.13035 0.39636,-0.15865 0.28464,-0.0566 0.60309,-0.031 0.91674,-0.0176 h 27.63448 c 0.20381,0.0968 0.35994,0.23457 0.48576,0.39791 0.12583,0.16334 0.22144,0.35232 0.30541,0.55139 0.16794,0.39813 0.28811,0.83668 0.5054,1.19269 9.81198,22.05442 19.5907,44.12502 29.42352,66.1696 0.40652,0.85198 0.89958,1.66414 1.46761,2.41949 0.56804,0.75535 1.21101,1.45391 1.91772,2.07843 0.7067,0.62452 1.47707,1.17505 2.2996,1.63452 0.82253,0.45948 1.69725,0.82756 2.61276,1.08779 0.87259,0.273 1.75515,0.45058 2.64428,0.56483 0.88913,0.11425 1.7851,0.16543 2.68511,0.185 1.80002,0.0391 3.61593,-0.0469 5.42551,-0.002 24.270398,-0.009 48.541608,0.0182 72.811574,-0.0139 0.538314,-0.0109 1.062547,-0.0991 1.565279,-0.25167 0.502732,-0.15259 0.9842,-0.36948 1.436088,-0.63923 0.451888,-0.26976 0.874606,-0.59208 1.260388,-0.95447 0.385783,-0.36239 0.734282,-0.76527 1.038696,-1.19579 0.245224,-0.30475 0.456569,-0.63269 0.631486,-0.97772 0.174918,-0.34502 0.313743,-0.70681 0.414962,-1.079 0.101219,-0.37219 0.164489,-0.75478 0.188619,-1.14102 0.02413,-0.38623 0.0088,-0.77607 -0.04754,-1.16323 -0.0082,-0.37505 -0.05945,-0.73906 -0.143144,-1.09399 -0.0837,-0.35493 -0.199663,-0.70072 -0.337447,-1.03922 -0.275568,-0.67699 -0.637655,-1.32514 -1.000973,-1.95853 l -41.174747,-76.9922 c -7.75e-4,-0.17925 0.03656,-0.32948 0.101286,-0.45837 0.06473,-0.1289 0.157318,-0.23664 0.26665,-0.33125 0.218664,-0.18922 0.505572,-0.32589 0.777213,-0.47439 1.162825,-0.69081 2.308969,-1.41332 3.435966,-2.16679 1.126998,-0.75347 2.234483,-1.53816 3.320211,-2.35283 1.085729,-0.81467 2.149418,-1.65927 3.188436,-2.53369 1.039018,-0.87443 2.053775,-1.77823 3.040641,-2.71095 0.986867,-0.93273 1.946004,-1.89448 2.875277,-2.88406 0.929274,-0.98958 1.828687,-2.00703 2.694926,-3.05201 0.866239,-1.04499 1.699242,-2.1174 2.497005,-3.21634 0.797763,-1.09894 1.560253,-2.22458 2.284099,-3.37602 0.684649,-1.0772 1.335009,-2.17414 1.951818,-3.28818 0.616809,-1.11404 1.199694,-2.24537 1.750281,-3.39204 0.550587,-1.14666 1.068443,-2.30843 1.554427,-3.48351 0.485985,-1.17507 0.940224,-2.3633 1.363225,-3.56257 0.423,-1.19927 0.815036,-2.40947 1.176672,-3.62872 0.361636,-1.21924 0.692881,-2.44746 0.994771,-3.68246 0.301891,-1.235 0.574275,-2.47674 0.818038,-3.72329 0.243764,-1.24654 0.459216,-2.49784 0.646472,-3.75171 0.252044,-1.67548 0.458637,-3.35593 0.622701,-5.04 0.164065,-1.68406 0.285398,-3.37195 0.366386,-5.06274 0.08099,-1.69079 0.121725,-3.38466 0.12454,-5.08031 0.0028,-1.69565 -0.03238,-3.39302 -0.102836,-5.09168 -0.06864,-1.44883 -0.169896,-2.92398 -0.305924,-4.39715 -0.136029,-1.47316 -0.306538,-2.94432 -0.513147,-4.38629 -0.302642,-2.14129 -0.691383,-4.28002 -1.168404,-6.40271 -0.477021,-2.12269 -1.042594,-4.22949 -1.698605,-6.30711 -0.65601,-2.07762 -1.40263,-4.12584 -2.24224,-6.13192 -0.83961,-2.00609 -1.772009,-3.97012 -2.799829,-5.8782 -0.675674,-1.27215 -1.393907,-2.52006 -2.151807,-3.74292 -0.7579,-1.22287 -1.555455,-2.42031 -2.390035,-3.59203 -0.834579,-1.17172 -1.70653,-2.31778 -2.612243,-3.43648 -0.905713,-1.11871 -1.845583,-2.21039 -2.816883,-3.27422 -0.9713,-1.06383 -1.973643,-2.0997 -3.004984,-3.10679 -1.031341,-1.00709 -2.091232,-1.98519 -3.177067,-2.93367 -1.085836,-0.94848 -2.19783,-1.86738 -3.332613,-2.75539 -1.134784,-0.888 -2.292404,-1.74524 -3.47059,-2.5709 -1.220238,-0.86288 -2.463695,-1.69124 -3.727421,-2.48615 -1.263725,-0.79492 -2.547699,-1.55623 -3.850411,-2.28462 -1.302711,-0.72838 -2.623801,-1.42392 -3.960998,-2.08721 -1.337197,-0.66329 -2.690968,-1.2943 -4.05815,-1.89394 -1.367182,-0.59964 -2.748166,-1.1679 -4.140835,-1.70532 -1.39267,-0.53743 -2.79694,-1.0442 -4.2106,-1.52084 -1.41365,-0.47664 -2.83678,-0.92319 -4.26692,-1.34049 -1.43013,-0.4173 -2.86718,-0.80539 -4.3093,-1.16478 -2.9747,-0.74158 -5.97319,-1.36973 -8.98911,-1.89498 -3.01593,-0.52525 -6.04921,-0.94783 -9.09454,-1.27847 -3.04533,-0.33065 -6.10241,-0.56934 -9.16533,-0.72709 -3.06292,-0.15775 -6.13177,-0.23423 -9.20047,-0.24081 z m -49.14015,62.56414 h 41.65792 c 0.96316,-0.0123 1.93725,0.0556 2.89801,0.2098 0.96076,0.15417 1.90832,0.39444 2.81844,0.72709 0.91011,0.33265 1.78239,0.75789 2.59364,1.28106 0.40562,0.26158 0.79602,0.54739 1.16788,0.85886 0.37186,0.31147 0.72523,0.64845 1.0573,1.01131 0.64628,0.73521 1.25319,1.50952 1.81126,2.31769 0.55808,0.80816 1.06776,1.64992 1.51877,2.52129 0.45101,0.87137 0.84332,1.77216 1.16841,2.69699 0.32508,0.92483 0.58295,1.87418 0.76326,2.84272 0.13254,0.70112 0.23816,1.41099 0.31574,2.12597 0.0776,0.71499 0.12664,1.43511 0.14573,2.15646 0.0191,0.72135 0.008,1.44399 -0.0346,2.16421 -0.0429,0.72022 -0.11787,1.43764 -0.22634,2.14922 -0.10846,0.71158 -0.25036,1.41709 -0.42788,2.11253 -0.17752,0.69545 -0.39069,1.38078 -0.64079,2.05259 -0.2501,0.67181 -0.53731,1.33027 -0.86351,1.97094 -0.3262,0.64067 -0.69127,1.26349 -1.09709,1.86552 -0.2863,0.45083 -0.60145,0.87921 -0.94155,1.28364 -0.3401,0.40444 -0.7054,0.78518 -1.09244,1.14205 -0.38703,0.35687 -0.79555,0.68974 -1.22266,0.99787 -0.42711,0.30814 -0.87242,0.59133 -1.33273,0.84956 -0.92064,0.51647 -1.90075,0.93196 -2.91301,1.24179 -1.01225,0.30983 -2.05679,0.51439 -3.10575,0.60823 -1.52225,0.13074 -3.04906,0.14824 -4.57698,0.14056 -1.52792,-0.008 -3.05702,-0.0405 -4.58318,-0.0114 h -35.95802 c -0.15816,-0.0885 -0.27157,-0.1954 -0.35295,-0.31574 -0.0814,-0.12034 -0.13034,-0.25455 -0.15864,-0.39688 -0.0566,-0.28464 -0.031,-0.60309 -0.0176,-0.91674 v -35.15806 c 0.0885,-0.15816 0.1954,-0.27209 0.31574,-0.35346 0.12034,-0.0814 0.25404,-0.12984 0.39636,-0.15813 0.28465,-0.0566 0.60361,-0.031 0.91726,-0.0176 z"
         style="font-size:266.667px;line-height:1;font-family:'Rubik Mono One';-inkscape-font-specification:'Rubik Mono One';letter-spacing:0px;word-spacing:0px;white-space:pre;fill:#ebebeb;stroke-width:0.861732;stroke-linecap:round;stroke-linejoin:round"
         id="path30" />
      <path
         style="font-size:266.667px;line-height:1;font-family:'Rubik Mono One';-inkscape-font-specification:'Rubik Mono One';letter-spacing:0px;word-spacing:0px;white-space:pre;fill:#ebebeb;stroke-width:0.861732;stroke-linecap:round;stroke-linejoin:round"
         d="m 2618.0137,-430.6608 c -14.2162,0.20467 -28.449,1.6297 -42.2745,5.14329 -13.7118,3.45675 -27.048,9.14593 -38.5522,17.50234 -9.3253,6.6315 -17.4827,15.12063 -22.7119,25.34275 -4.3009,8.30619 -6.5228,17.58173 -6.895,26.88076 -0.4027,9.81989 0.9657,19.84529 4.9233,28.92802 3.9887,9.33478 10.6836,17.35805 18.6972,23.52308 9.7599,7.54069 21.2126,12.62576 32.8811,16.3347 14.3931,4.54336 29.3239,7.05837 44.2906,8.69699 10.0707,1.23886 20.1609,2.5405 30.0502,4.85888 3.7966,0.95596 7.6145,2.0405 11.0823,3.89477 2.674,1.43176 5.2575,3.74515 5.6963,6.90365 0.4353,2.33433 -0.6415,4.76305 -2.5193,6.17005 -3.0128,2.35835 -6.852,3.25106 -10.5314,3.98088 -7.475,1.29541 -15.0937,1.46506 -22.6631,1.36779 -7.7164,-0.22231 -15.5855,-1.08737 -22.7446,-4.14879 -3.2558,-1.37841 -6.2475,-3.36721 -8.7483,-5.86838 -3.0389,-2.73669 -7.2446,-3.7666 -11.2569,-3.63187 -23.3292,0.009 -46.6589,-0.0174 -69.9878,0.013 -2.2584,0.0391 -4.8002,0.83174 -5.9059,2.96745 -1.2647,2.42447 -0.7945,5.30186 -0.7291,7.88684 0.4662,7.19955 2.4081,14.34901 5.7365,20.79245 2.5135,4.92025 5.8062,9.4682 9.5581,13.52947 5.0301,5.45987 10.8676,10.15203 17.0536,14.15997 15.4536,9.75276 33.3917,14.88175 51.3992,17.54577 14.5329,2.11756 29.248,2.69549 43.9437,2.31918 18.3953,-0.52172 36.8664,-2.84137 54.4794,-8.41142 13.3595,-4.25377 26.1688,-10.46274 37.2626,-19.12552 8.9579,-6.98965 16.6527,-15.87863 21.1464,-26.39262 3.3264,-7.67186 4.8691,-16.05371 4.8619,-24.35878 0,-9.89646 -1.4105,-19.90711 -5.264,-29.10537 -3.5319,-8.50988 -9.2821,-16.07047 -16.5309,-21.75689 -2.2331,-1.74725 -4.6063,-3.46077 -7.0454,-4.95292 -8.6344,-5.30675 -18.1473,-8.93437 -27.802,-11.80605 -15.6876,-4.61882 -31.8988,-7.22089 -48.1255,-9.09404 -9.7264,-1.17059 -19.4693,-2.36065 -29.0637,-4.37269 -4.0254,-0.85043 -8.1662,-1.97637 -11.4353,-4.59276 -1.9149,-1.46752 -3.1876,-3.89692 -2.7859,-6.34191 0.2699,-2.88798 2.5417,-5.13024 5.0644,-6.29779 4.3027,-2.02873 9.1332,-2.48538 13.8232,-2.75824 7.6661,-0.34122 15.6197,0.042 22.736,3.18605 2.7952,1.21525 5.3086,2.98983 7.5381,5.05364 2.8095,2.36224 6.5313,3.4363 10.1697,3.28621 24.462,-0.009 48.9245,0.0174 73.3862,-0.013 1.9931,-0.0362 3.9965,-0.79007 5.3339,-2.3047 1.5747,-1.50031 1.9414,-3.78385 1.7727,-5.86137 -0.1289,-4.61441 -1.1416,-9.27273 -2.814,-13.49967 -3.6641,-9.27465 -10.2453,-17.07859 -17.5914,-23.68503 -5.5682,-4.96159 -11.593,-9.41534 -17.9457,-13.32077 -13.9262,-8.45834 -29.7497,-13.53049 -45.7146,-16.13228 -11.6426,-1.91511 -23.4367,-2.57867 -35.2482,-2.43509 z"
         id="path9" />
    </g>
  </g>
</svg>
