<?xml version="1.0" encoding="UTF-8" standalone="no"?>
<svg
   data-name="Layer 1"
   width="793"
   height="551.73151"
   viewBox="0 0 793 551.73152"
   version="1.1"
   id="svg21"
   sodipodi:docname="undraw_secure_login_pdn4.svg"
   xmlns:inkscape="http://www.inkscape.org/namespaces/inkscape"
   xmlns:sodipodi="http://sodipodi.sourceforge.net/DTD/sodipodi-0.dtd"
   xmlns="http://www.w3.org/2000/svg"
   xmlns:svg="http://www.w3.org/2000/svg">
  <defs
     id="defs21" />
  <sodipodi:namedview
     id="namedview21"
     pagecolor="#505050"
     bordercolor="#eeeeee"
     borderopacity="1"
     inkscape:showpageshadow="0"
     inkscape:pageopacity="0"
     inkscape:pagecheckerboard="0"
     inkscape:deskcolor="#505050" />
  <ellipse
     cx="158"
     cy="539.73151"
     rx="158"
     ry="12"
     fill="#e6e6e6"
     id="ellipse1"
     style="fill:#6a86a0;fill-opacity:1" />
  <path
     d="m 120.77227,122.41953 c 27.49676,-11.6953 61.74442,-4.28528 95.19092,0.85757 0.31124,-6.228 4.08385,-13.80782 0.132,-18.15284 -4.80115,-5.2788 -4.35917,-10.82529 -1.47008,-16.40375 7.38788,-14.265 -3.1969,-29.44375 -13.88428,-42.0647 a 23.66937,23.66937 0 0 0 -19.75537,-8.29179 l -19.7975,1.41411 A 23.70939,23.70939 0 0 0 140.135,56.72427 v 0 c -4.72724,6.42917 -7.25736,12.84055 -5.66438,19.21854 -7.08065,4.83882 -8.27029,10.67977 -5.08851,17.2644 2.698,4.14592 2.66928,8.18161 -0.12275,12.1056 a 55.89079,55.89079 0 0 0 -8.31011,16.5061 z"
     fill="#2f2e41"
     id="path1" />
  <path
     d="M 774.20889,476.96303 H 213.79111 A 18.79111,18.79111 0 0 1 195,458.17192 v 0 q 304.727,-35.41512 598,0 v 0 a 18.79111,18.79111 0 0 1 -18.79111,18.79111 z"
     fill="#2f2e41"
     id="path2" />
  <path
     d="m 793,459.27727 -598,-1.10536 69.30611,-116.61553 0.3316,-0.55268 V 83.99633 A 23.7522,23.7522 0 0 1 288.39189,60.24215 H 696.292 a 23.7522,23.7522 0 0 1 23.75418,23.75418 v 258.77592 z"
     fill="#3f3d56"
     id="path3" />
  <path
     d="m 287.85028,76.82255 a 7.74623,7.74623 0 0 0 -7.73753,7.73753 v 234.33641 a 7.74657,7.74657 0 0 0 7.73753,7.73752 h 412.29944 a 7.74691,7.74691 0 0 0 7.73753,-7.73752 V 84.56008 a 7.74657,7.74657 0 0 0 -7.73753,-7.73753 z"
     fill="#fff"
     id="path4"
     style="fill:#6a86a0;fill-opacity:1" />
  <path
     d="m 289.57794,357.58411 a 3.32522,3.32522 0 0 0 -3.01275,1.93006 l -21.35537,46.42514 a 3.31594,3.31594 0 0 0 3.01221,4.7021 h 449.09208 a 3.3157,3.3157 0 0 0 2.96526,-4.79925 L 697.0668,359.41702 a 3.29926,3.29926 0 0 0 -2.96526,-1.83291 z"
     fill="#2f2e41"
     id="path5" />
  <path
     d="m 448.19986,419.48429 a 3.32114,3.32114 0 0 0 -3.20165,2.4536 l -5.35679,19.89649 a 3.31576,3.31576 0 0 0 3.20166,4.17856 h 101.874 a 3.31531,3.31531 0 0 0 3.13257,-4.40093 l -6.88691,-19.89649 a 3.31784,3.31784 0 0 0 -3.13366,-2.23123 z"
     fill="#2f2e41"
     id="path6" />
  <polygon
     points="264.306,341.556 264.649,341.004 264.649,337.135 720.046,337.135 720.046,341.556 "
     fill="#2f2e41"
     id="polygon6" />
  <circle
     cx="707.33459"
     cy="77.375229"
     r="77.375229"
     fill="#f9a826"
     id="circle6" />
  <path
     d="m 739.39,111.08876 h -64.11089 a 4.42582,4.42582 0 0 1 -4.42144,-4.42145 V 67.97967 a 4.42616,4.42616 0 0 1 4.42144,-4.42144 H 739.39 a 4.42616,4.42616 0 0 1 4.42144,4.42144 v 38.68761 A 4.42582,4.42582 0 0 1 739.39,111.08876 Z M 675.27909,67.9797 v 38.68761 h 64.11415 l -0.003,-38.68764 z"
     fill="#fff"
     id="path7"
     style="fill:#3f3d56;fill-opacity:1" />
  <path
     d="m 727.23105,67.97967 h -39.793 V 50.2939 c 0,-12.80987 8.36792,-22.10721 19.89649,-22.10721 11.52857,0 19.89648,9.29734 19.89648,22.10721 z m -35.37153,-4.42144 h 30.95009 V 50.2939 c 0,-10.413 -6.36338,-17.68576 -15.475,-17.68576 -9.11162,0 -15.47505,7.27281 -15.47505,17.68576 z"
     fill="#fff"
     id="path8"
     style="fill:#3f3d56;fill-opacity:1" />
  <circle
     cx="707.33459"
     cy="86.218109"
     r="4.4214401"
     fill="#fff"
     id="circle8"
     style="fill:#3f3d56;fill-opacity:1" />
  <path
     d="M 653.31994,247.14948 H 334.68006 a 5.90767,5.90767 0 0 1 -5.90073,-5.90073 v -79.04099 a 5.90767,5.90767 0 0 1 5.90073,-5.90072 h 318.63988 a 5.90767,5.90767 0 0 1 5.90073,5.90072 v 79.041 a 5.90767,5.90767 0 0 1 -5.90073,5.90072 z m -318.63988,-88.4821 a 3.5443,3.5443 0 0 0 -3.54043,3.54043 v 79.04095 a 3.54431,3.54431 0 0 0 3.54043,3.54044 h 318.63988 a 3.54431,3.54431 0 0 0 3.54043,-3.54044 v -79.041 a 3.5443,3.5443 0 0 0 -3.54043,-3.54043 z"
     fill="#e6e6e6"
     id="path9"
     style="fill:#5d5b77;fill-opacity:1" />
  <circle
     cx="384.19022"
     cy="198.69547"
     r="24.036449"
     fill="#e6e6e6"
     id="circle9"
     style="fill:#5d5b77;fill-opacity:1" />
  <path
     d="m 439.703,182.67117 a 4.00608,4.00608 0 1 0 0,8.01215 h 188.85774 a 4.006075,4.006075 0 0 0 0,-8.01215 z"
     fill="#e6e6e6"
     id="path10"
     style="fill:#5d5b77;fill-opacity:1" />
  <path
     d="m 439.703,206.70762 a 4.00607,4.00607 0 1 0 0,8.01214 h 81.266 a 4.00607,4.00607 0 1 0 0,-8.01214 z"
     fill="#e6e6e6"
     id="path11"
     style="fill:#5d5b77;fill-opacity:1" />
  <path
     d="m 263.522,208.32817 -58.9031,31.31559 -0.74561,-26.09629 c 19.22553,-3.20948 37.51669,-8.7974 54.42941,-17.8946 l 6.1605,-15.22008 a 10.31753,10.31753 0 0 1 17.53643,-2.67788 v 0 a 10.31753,10.31753 0 0 1 -0.90847,14.06885 z"
     fill="#ffb8b8"
     id="path12" />
  <path
     d="m 119.59819,389.13283 v 0 a 11.57378,11.57378 0 0 1 1.46928,-9.36311 l 12.93931,-19.85777 a 22.61221,22.61221 0 0 1 29.335,-7.73927 v 0 c -5.438,9.25647 -4.67994,17.37679 1.87806,24.43365 a 117.63085,117.63085 0 0 0 -27.93606,19.04492 11.57386,11.57386 0 0 1 -17.68559,-6.51842 z"
     fill="#2f2e41"
     id="path13" />
  <path
     d="m 266.20475,363.1685 v 0 a 22.20314,22.20314 0 0 1 -18.87085,10.77909 l -85.96027,0.65122 -3.728,-21.62264 38.026,-11.18413 -32.06116,-24.60507 35.04353,-41.00844 63.65,59.32431 a 22.20317,22.20317 0 0 1 3.90075,27.66566 z"
     fill="#2f2e41"
     id="path14" />
  <path
     d="M 147.95266,511.04515 H 127.82124 C 109.74615,387.14743 91.34741,262.90329 145.71584,216.52986 l 64.12231,10.43852 -8.20169,54.42938 -35.7892,41.00845 z"
     fill="#2f2e41"
     id="path15" />
  <path
     d="m 165.64917,539.1117 v 0 a 11.57381,11.57381 0 0 1 -9.3632,-1.46873 l -21.85854,-2.93814 a 22.61221,22.61221 0 0 1 -7.741,-29.33451 v 0 c 9.2568,5.43749 17.37707,4.67891 24.43354,-1.8795 4.98593,10.06738 13.20093,9.45331 21.04657,17.93494 a 11.57385,11.57385 0 0 1 -6.51737,17.68594 z"
     fill="#2f2e41"
     id="path16" />
  <path
     d="m 195.6716,133.76734 -37.28042,-8.94731 c 6.19168,-12.6739 6.70155,-26.77618 3.728,-41.75406 l 25.35068,-0.74561 c 0.79435,18.6254 3.19746,36.02621 8.20174,51.44698 z"
     fill="#ffb8b8"
     id="path17" />
  <path
     d="m 205.91752,249.41819 c -27.13873,18.49308 -46.31418,0.63272 -60.94729,-26.92346 2.03338,-16.86188 -1.259,-37.04061 -7.35672,-58.96635 a 40.13762,40.13762 0 0 1 24.50567,-48.40124 v 0 l 32.06116,13.421 c 27.22362,22.19038 32.582,46.227 22.36825,71.5784 z"
     fill="#f9a826"
     id="path18" />
  <path
     d="m 127.82124,152.40754 -29.82434,15.65778 52.9382,31.31555 7.366,18.16951 a 9.63673,9.63673 0 0 1 -5.78925,12.73088 v 0 a 9.63673,9.63673 0 0 1 -12.76159,-8.54442 l -0.74489,-12.66307 -67.2838,-22.20366 a 15.73306,15.73306 0 0 1 -9.87265,-9.61147 v 0 a 15.733,15.733 0 0 1 5.90262,-18.30258 l 54.10485,-37.11845 z"
     fill="#ffb8b8"
     id="path19" />
  <path
     d="m 157.64557,155.38998 c -12.43861,-5.4511 -23.74934,0.47044 -38.026,5.21926 l -2.23683,-39.51725 c 14.17612,-7.55568 27.69209,-9.59281 40.26285,-3.728 z"
     fill="#f9a826"
     id="path20" />
  <circle
     cx="172.52496"
     cy="78.092506"
     r="23.802111"
     fill="#ffb8b8"
     id="circle20" />
  <path
     d="M 201,75.08929 C 177.43384,77.3974 159.47662,73.54323 148,62.56922 v -8.8377 h 51 z"
     fill="#2f2e41"
     id="path21" />
</svg>
