<?xml version="1.0" encoding="UTF-8" standalone="no"?>
<svg
   width="731.66998"
   height="435.02908"
   viewBox="0 0 731.67 435.02908"
   version="1.1"
   id="svg40"
   sodipodi:docname="undraw_traveling_yhxq (1).svg"
   xmlns:inkscape="http://www.inkscape.org/namespaces/inkscape"
   xmlns:sodipodi="http://sodipodi.sourceforge.net/DTD/sodipodi-0.dtd"
   xmlns="http://www.w3.org/2000/svg"
   xmlns:svg="http://www.w3.org/2000/svg">
  <defs
     id="defs40" />
  <sodipodi:namedview
     id="namedview40"
     pagecolor="#505050"
     bordercolor="#eeeeee"
     borderopacity="1"
     inkscape:showpageshadow="0"
     inkscape:pageopacity="0"
     inkscape:pagecheckerboard="0"
     inkscape:deskcolor="#505050" />
  <path
     d="m 79.48,306.78908 c -3.16,0.34 -6.61,0.85 -10.28,1.6 -15.55,3.17 -15.88,13.73 -15.74,16.15 l -0.11,-0.07 c -1.56,2.51 -2.54,5.05 -3.14,7.44 l -0.71,-32.37 c 0.46,-0.96 0.88,-2.05 1.23,-3.16 1.16,3.59 3.07,6.97 4.72,6.75 2.14,-0.29 3.07,-6.59 2.67,-11.06 2.72,3.5 7.3,7.25 9.03,6.09 1.38,-0.92 0.56,-4.72 -0.94,-8.18 3.14,1.89 6.62,3.13 7.7,1.93 1.47,-1.64 -2.06,-7.23 -5.31,-10.35 4.35,0.41 9.89,-0.29 10.26,-2.27 0.3,-1.63 -3,-3.69 -6.53,-5.02 3.54,-0.93 6.86,-2.56 6.75,-4.17 -0.13,-1.91 -5.05,-3.2 -9.3,-3.39 3.2,-2.5 6.14,-5.97 5.24,-7.53 -0.83,-1.44 -4.67,-0.88 -8.22,0.39 2.1,-3 3.58,-6.39 2.45,-7.55 -1.4,-1.44 -6.37,1.05 -9.77,3.8 0.66,-4.29 0.33,-9.7 -1.6,-10.19 -1.61,-0.41 -3.89,2.74 -5.45,6.17 -0.69,-3.6 -2.09,-7.02 -3.7,-7.02 -2.3,0 -4.16,6.93 -4.16,11.45 0,0.26 0,0.5 0.02,0.73 -0.23,-0.27 -0.5,-0.55 -0.8,-0.84 -3.24,-3.15 -9.51,-6.64 -11.12,-4.99 -1.12,1.16 0.35,4.54 2.45,7.55 -3.55,-1.27 -7.4,-1.83 -8.22,-0.39 -1.11,1.93 3.64,6.76 7.5,9.1 -0.23,-0.03 -0.48,-0.05 -0.74,-0.07 -4.51,-0.31 -11.55,1.08 -11.71,3.37 -0.11,1.61 3.2,3.24 6.75,4.17 -3.53,1.33 -6.82,3.39 -6.53,5.02 0.36,1.98 5.9,2.68 10.26,2.27 -3.25,3.12 -6.78,8.71 -5.31,10.35 1.08,1.2 4.56,-0.04 7.7,-1.93 -1.51,3.46 -2.32,7.26 -0.94,8.18 1.82,1.22 6.83,-3.03 9.46,-6.68 -0.27,4.47 0.8,10.61 2.92,10.85 0.89,0.1 1.83,-0.85 2.68,-2.3 l -2.4,34.79 c -0.56,4.05 3.03,6.7 3.35,8.36 l 0.52,23.56 c -0.59,-1.68 -1.37,-3.4 -2.44,-5.1 l -0.11,0.07 c 0.14,-2.42 -0.19,-12.98 -15.74,-16.15 -3.67,-0.75 -7.12,-1.26 -10.28,-1.6 -3.73,-0.4 -5.19,4.71 -1.82,6.36 4.88,2.39 9.47,5.4 11.87,8.96 6.12,9.11 14.57,3.85 15.78,3.03 1.34,2.24 2.22,4.49 2.78,6.63 l 0.28,12.51 c -0.07,0.3 -0.11,0.46 -0.12,0.47 l 0.13,0.04 0.67,30.28 6.18,-0.05 -2.21,-30.95 c 0.37,-1.67 1.51,-7.36 0,-13.26 l -2.21,-24.32 v 0 c 0,0 0.13,0.64 0,0 l -2.88,-9.56 c 0.42,-2.96 1.39,-6.28 3.37,-9.57 1.2,0.82 9.66,6.09 15.78,-3.03 2.39,-3.56 6.99,-6.57 11.87,-8.96 3.37,-1.65 1.92,-6.76 -1.82,-6.36 v 0 z m -28.23,71.64 -0.12,-5.3 c 0.23,2 0.22,3.81 0.12,5.3 z"
     fill="#f2f2f2"
     id="path1"
     style="fill:#536682;fill-opacity:1" />
  <path
     d="m 0,414.28908 c 0,0.66 0.53,1.19 1.19,1.19 h 729.29 c 0.66,0 1.19,-0.53 1.19,-1.19 0,-0.66 -0.53,-1.19 -1.19,-1.19 H 1.19 c -0.66,0 -1.19,0.53 -1.19,1.19 z"
     fill="#3f3d56"
     id="path2" />
  <g
     id="g9"
     transform="translate(0,-9.2161546e-4)">
    <circle
       cx="442.57999"
       cy="361.34"
       r="54"
       fill="#3f3d56"
       id="circle2" />
    <circle
       cx="442.57999"
       cy="361.34"
       r="36"
       fill="#fff"
       id="circle3"
       style="fill:#5f779c;fill-opacity:1" />
    <circle
       cx="442.57999"
       cy="361.34"
       r="20.5"
       fill="#3f3d56"
       id="circle4" />
    <circle
       cx="130.58"
       cy="361.34"
       r="54"
       fill="#3f3d56"
       id="circle5" />
    <circle
       cx="130.58"
       cy="361.34"
       r="36"
       fill="#fff"
       id="circle6"
       style="fill:#5f779c;fill-opacity:1" />
    <path
       d="m 516.45,335.66 c -7.03,-17.73 -31.61,-71.9 -75.39,-89.83 -0.34,-0.14 -0.69,-0.23 -1.05,-0.28 L 299.6,225.44 c -2.31,-0.33 -4.47,1.25 -4.84,3.56 l -2.46,15.2 c -0.17,1.04 0.05,2.11 0.62,3 7.13,11.06 52.83,86.15 -20.35,86.15 -73.18,0 -93.35,-52.37 -96.55,-61.62 -0.3,-0.87 -0.31,-1.81 -0.04,-2.69 l 22.18,-70.25 c 0.39,-1.25 0.18,-2.53 -0.46,-3.55 l 9.75,-18.11 17.86,10.11 9.25,0.11 31.57,16.5 6.43,-10.5 -65.11,-32.48 c 0,0 0.11,-7.52 -20.89,-13.52 l -33,-15 -4,5 10,8 1,6 7,2 14,27 -4,7.74 4.86,2.37 -1.39,-0.32 c -2.01,-0.46 -4.06,0.58 -4.88,2.47 l -22.06,50.56 c -0.34,0.77 -0.9,1.43 -1.61,1.89 l -7.86,5.07 c -0.73,0.47 -1.31,1.16 -1.64,1.97 L 134,273.87 c -0.28,0.68 -0.36,1.39 -0.29,2.08 -11.19,2.12 -44.08,11.28 -62.15,47.41 l 21,17 c 0,0 32.92,-21.3 87.32,0.88 9.46,14.72 23.25,26.93 43.17,28.08 52.51,3.04 139.51,6.04 149.51,-5.96 7.32,-8.79 12.41,-14.27 14.62,-16.58 0.78,-0.81 1.84,-1.28 2.96,-1.32 l 122.45,-3.91 c 2.97,-0.09 4.94,-3.11 3.85,-5.87 z"
       fill="#f9a826"
       id="path6" />
    <circle
       cx="178.58"
       cy="162.34"
       r="16"
       fill="#3f3d56"
       id="circle7" />
    <path
       d="m 434.81,245.9 c -0.19,0 -0.38,0 -0.57,-0.01 l -133.78,-5.18 c -5.92,-0.23 -10.99,-4 -12.92,-9.6 l -1.83,-5.33 c -1.49,-4.34 -0.84,-9 1.78,-12.77 2.63,-3.77 6.77,-5.99 11.36,-6.1 l 138.22,-3.18 c 4.28,-0.1 8.4,1.73 11.19,5.03 2.79,3.3 3.93,7.62 3.12,11.87 l -2.61,13.68 c -1.29,6.79 -7.12,11.58 -13.97,11.58 z"
       fill="#3f3d56"
       id="path7" />
    <circle
       cx="130.58"
       cy="361.34"
       r="20.5"
       fill="#3f3d56"
       id="circle8" />
    <path
       d="m 488.56,302.98 c -3.2,0 -6.25,-1.71 -7.88,-4.66 l -10.13,-18.34 c -1.61,-2.91 -1.51,-6.32 0.25,-9.13 1.76,-2.82 4.8,-4.4 8.1,-4.22 l 18.39,0.94 c 3.42,0.18 6.5,2.33 7.84,5.49 l 5.37,12.7 c 0.98,2.33 0.96,4.87 -0.07,7.18 -1.03,2.3 -2.91,4.03 -5.29,4.85 l -13.62,4.7 c -0.97,0.34 -1.97,0.5 -2.95,0.5 z"
       fill="#3f3d56"
       id="path8" />
    <path
       d="m 256.01,424.87 c -0.15,0 -0.31,0 -0.46,-0.03 l -4.08,-0.45 c -1.33,-0.15 -2.49,-0.9 -3.17,-2.06 -0.68,-1.16 -0.77,-2.53 -0.25,-3.77 l 21.24,-50.44 0.46,0.19 -0.46,-0.19 c 0.58,-1.38 1.87,-2.36 3.36,-2.55 1.45,-0.18 2.86,0.39 3.79,1.52 0.92,1.13 1.2,2.63 0.73,4.01 l -17.15,50.89 c -0.58,1.72 -2.22,2.87 -4,2.87 z"
       fill="#3f3d56"
       id="path9" />
  </g>
  <path
     d="m 366.28,72.879078 c 0,0 -7.77,-15.54 -6.22,-29.52 l -25.86,13.4 1,25.44 z"
     fill="#a0616a"
     id="path10" />
  <circle
     cx="350.23001"
     cy="40.609077"
     r="23.33"
     fill="#a0616a"
     id="circle10" />
  <g
     id="g11"
     transform="translate(0,-9.2161546e-4)">
    <polygon
       points="353.05,352.02 374.06,352.02 374.06,406.93 359.82,406.93 "
       fill="#a0616a"
       id="polygon10" />
    <path
       d="m 325.29,406.6 v 0 c -0.44,0.75 -0.68,3.16 -0.68,4.02 v 0 c 0,2.67 2.16,4.83 4.83,4.83 h 44.08 c 1.82,0 3.3,-1.48 3.3,-3.3 v -1.84 c 0,0 2.18,-5.52 -2.31,-12.31 0,0 -5.58,5.32 -13.92,-3.01 l -2.46,-4.45 -17.8,13.02 -9.87,1.21 c -2.16,0.27 -4.07,-0.04 -5.18,1.83 v 0 0 z"
       fill="#2f2e41"
       id="path11" />
  </g>
  <path
     d="m 332.09,72.879078 34.19,-4.66 26.42,12.43 1.55,96.340002 c 0,0 -64.98,7.77 -75.22,-2.33 -10.24,-10.1 -2.47,-90.900002 -2.47,-90.900002 l 15.54,-10.88 c 0,0 0,0 0,0 z"
     fill="#e6e6e6"
     id="path12"
     style="fill:#5f779c;fill-opacity:1" />
  <path
     d="m 344.39,46.549078 h -6.27 c 0,0 -5.44,-6.7 -4.71,-2.62 0.73,4.08 -2.2,8.47 -2.2,8.47 l -4.39,-1.46 c 0,0 -8.78,-36.93 17.57,-38.96 26.35,-2.0299996 32.21,18.47 32.21,18.47 0,0 -1.46,10.25 -4.39,7.32 -2.93,-2.93 -19.03,-4.39 -19.03,-4.39 l -8.78,13.18 c 0,0 0,0 0,0 z"
     fill="#2f2e41"
     id="path13" />
  <g
     id="g14"
     transform="translate(0,-9.2161546e-4)">
    <polygon
       points="292.67,347.46 312.89,341.75 327.8,394.59 314.11,398.45 "
       fill="#a0616a"
       id="polygon13" />
    <path
       d="m 280.78,407.53 v 0 c -0.22,0.84 0.21,3.22 0.44,4.06 v 0 c 0.72,2.57 3.39,4.06 5.96,3.34 l 42.42,-11.98 c 1.75,-0.49 2.77,-2.32 2.28,-4.07 l -0.5,-1.77 c 0,0 0.6,-5.9 -5.57,-11.22 0,0 -3.92,6.64 -14.21,0.88 l -3.58,-3.62 -13.59,17.36 -9.16,3.85 c -2,0.84 -3.93,1.07 -4.49,3.17 v 0 z"
       fill="#2f2e41"
       id="path14" />
  </g>
  <path
     d="m 389.58,167.66908 4.66,14.1 v 48.45 l -13.99,146.24 h -27.32 l -3.08,-104.39 2.43,-51.56 -52.11,78.84 22.9,56.31 -25.21,16.81 c 0,0 -37.7,-85.91 -32.06,-94.24 5.64,-8.32 56.16,-106.59 56.16,-106.59 0,0 67.6,-2.41 67.6,-3.96 v 0 c 0,0 0,0 0,0 z"
     fill="#2f2e41"
     id="path15" />
  <g
     id="g17"
     transform="translate(0,-9.2161546e-4)">
    <path
       d="m 403.57,111.73 7.51,12.3 c 0,0 10.62,41.74 0,41.91 -10.62,0.17 -32.06,-21.27 -32.06,-21.27 l 2.8,-11.19 7.77,3.11 -1.55,-24.86 h 15.54 c 0,0 0,0 0,0 z"
       fill="#a0616a"
       id="path16" />
    <path
       d="m 380.26,80.46 c 0,0 24.86,-4.38 27.19,11.89 2.33,16.27 3.63,31.69 3.63,31.69 l -26.94,2.23 z"
       fill="#e6e6e6"
       id="path17"
       style="fill:#5f779c;fill-opacity:1" />
    <ellipse
       cx="374.23001"
       cy="135.17"
       rx="7.02"
       ry="14.03"
       transform="rotate(-54.54,374.22996,135.16693)"
       fill="#a0616a"
       id="ellipse17" />
  </g>
  <path
     d="m 590.48,306.78908 c -3.16,0.34 -6.61,0.85 -10.28,1.6 -15.55,3.17 -15.88,13.73 -15.74,16.15 l -0.11,-0.07 c -1.56,2.51 -2.54,5.05 -3.14,7.44 l -0.71,-32.37 c 0.46,-0.96 0.88,-2.05 1.23,-3.16 1.16,3.59 3.07,6.97 4.72,6.75 2.14,-0.29 3.07,-6.59 2.67,-11.06 2.72,3.5 7.3,7.25 9.03,6.09 1.38,-0.92 0.56,-4.72 -0.94,-8.18 3.14,1.89 6.62,3.13 7.7,1.93 1.47,-1.64 -2.06,-7.23 -5.31,-10.35 4.35,0.41 9.89,-0.29 10.26,-2.27 0.3,-1.63 -3,-3.69 -6.53,-5.02 3.54,-0.93 6.86,-2.56 6.75,-4.17 -0.13,-1.91 -5.05,-3.2 -9.3,-3.39 3.2,-2.5 6.14,-5.97 5.24,-7.53 -0.83,-1.44 -4.67,-0.88 -8.22,0.39 2.1,-3 3.58,-6.39 2.45,-7.55 -1.4,-1.44 -6.37,1.05 -9.77,3.8 0.66,-4.29 0.33,-9.7 -1.6,-10.19 -1.61,-0.41 -3.89,2.74 -5.45,6.17 -0.69,-3.6 -2.09,-7.02 -3.7,-7.02 -2.3,0 -4.16,6.93 -4.16,11.45 0,0.26 0,0.5 0.02,0.73 -0.23,-0.27 -0.5,-0.55 -0.8,-0.84 -3.24,-3.15 -9.51,-6.64 -11.12,-4.99 -1.12,1.16 0.35,4.54 2.45,7.55 -3.55,-1.27 -7.4,-1.83 -8.22,-0.39 -1.11,1.93 3.64,6.76 7.5,9.1 -0.23,-0.03 -0.48,-0.05 -0.74,-0.07 -4.51,-0.31 -11.55,1.08 -11.71,3.37 -0.11,1.61 3.2,3.24 6.75,4.17 -3.53,1.33 -6.82,3.39 -6.53,5.02 0.36,1.98 5.9,2.68 10.26,2.27 -3.25,3.12 -6.78,8.71 -5.31,10.35 1.08,1.2 4.56,-0.04 7.7,-1.93 -1.51,3.46 -2.32,7.26 -0.94,8.18 1.82,1.22 6.83,-3.03 9.46,-6.68 -0.27,4.47 0.8,10.61 2.92,10.85 0.89,0.1 1.83,-0.85 2.68,-2.3 l -2.4,34.79 c -0.56,4.05 3.03,6.7 3.35,8.36 l 0.52,23.56 c -0.59,-1.68 -1.37,-3.4 -2.44,-5.1 l -0.11,0.07 c 0.14,-2.42 -0.19,-12.98 -15.74,-16.15 -3.67,-0.75 -7.12,-1.26 -10.28,-1.6 -3.73,-0.4 -5.19,4.71 -1.82,6.36 4.88,2.39 9.47,5.4 11.87,8.96 6.12,9.11 14.57,3.85 15.78,3.03 1.34,2.24 2.22,4.49 2.78,6.63 l 0.28,12.51 c -0.07,0.3 -0.11,0.46 -0.12,0.47 l 0.13,0.04 0.67,30.28 6.18,-0.05 -2.21,-30.95 c 0.37,-1.67 1.51,-7.36 0,-13.26 l -2.21,-24.32 v 0 c 0,0 0.13,0.64 0,0 l -2.88,-9.56 c 0.42,-2.96 1.39,-6.28 3.37,-9.57 1.2,0.82 9.66,6.09 15.78,-3.03 2.39,-3.56 6.99,-6.57 11.87,-8.96 3.37,-1.65 1.92,-6.76 -1.82,-6.36 v 0 z m -28.23,71.64 -0.12,-5.3 c 0.23,2 0.22,3.81 0.12,5.3 z"
     fill="#f2f2f2"
     id="path18"
     style="fill:#536682;fill-opacity:1" />
  <g
     id="g19"
     transform="translate(0,-9.2161546e-4)">
    <polygon
       points="525.41,364.21 509.56,367.63 518.51,409.07 529.26,406.75 "
       fill="#a0616a"
       id="polygon18" />
    <path
       d="m 555.27,400.88 v 0 c 0.46,0.49 1.03,2.27 1.17,2.93 v 0 c 0.44,2.01 -0.84,4 -2.86,4.43 l -33.27,7.19 c -1.37,0.3 -2.73,-0.58 -3.03,-1.95 l -0.3,-1.39 c 0,0 -2.55,-3.81 -0.27,-9.67 0,0 5.08,3.11 10.01,-4.55 l 1.13,-3.76 15.56,6.92 7.64,-0.69 c 1.67,-0.15 3.07,-0.7 4.21,0.54 v 0 c 0,0 0,0 0,0 z"
       fill="#2f2e41"
       id="path19" />
  </g>
  <g
     id="g20"
     transform="translate(0,-9.2161546e-4)">
    <polygon
       points="526.42,361.86 513.19,371.24 537.73,405.82 546.69,399.46 "
       fill="#a0616a"
       id="polygon19" />
    <path
       d="m 568.3,383.82 v 0 c 0.61,0.27 1.84,1.68 2.22,2.23 v 0 c 1.19,1.68 0.8,4.01 -0.88,5.2 l -27.76,19.7 c -1.15,0.81 -2.73,0.54 -3.55,-0.6 l -0.82,-1.16 c 0,0 -3.84,-2.5 -4.05,-8.79 0,0 5.89,0.86 7.42,-8.12 l -0.44,-3.9 17.03,0.24 6.76,-3.64 c 1.48,-0.8 2.55,-1.85 4.08,-1.16 v 0 c 0,0 0,0 0,0 z"
       fill="#2f2e41"
       id="path20" />
  </g>
  <path
     d="m 408.6,195.46908 c 0,0 -16.71,22.72 16.71,48.27 l 68.25,-21.81 -24.38,-50.84 -21.59,-11.84 -39,36.21 v 0 z"
     fill="#2f2e41"
     id="path21" />
  <polyline
     points="493.57 221.94 520.03 273.47 536.75 380.73 515.86 382.12 494.96 280.44 458.05 225.42 483.82 213.58"
     fill="#2f2e41"
     id="polyline21"
     transform="translate(0,-9.2161546e-4)" />
  <path
     d="m 425.32,227.55908 v 16.19 l 47.36,52.01 c 0,0 0,39 18.11,57.11 l 20.89,32.04 18.11,-9.75 -26.46,-93.32 -47.36,-61.29 -30.64,7.01 v 0 z"
     fill="#2f2e41"
     id="path22" />
  <path
     d="m 458.97,67.069078 -8.92,34.010002 -34.01,-6.690002 c 0,0 23.73,-24.47 20.39,-35.62 l 22.55,8.3 v 0 z"
     fill="#a0616a"
     id="path23" />
  <path
     d="m 432.98,72.199078 20.89,9.75 c 0,0 10.75,6.57 10.95,10.95 0.2,4.38 -1.2,25.270002 -1.2,25.270002 0,0 8.36,8.36 2.79,25.07 l 2.79,27.86 -62.68,33.43 5.57,-58.5 -2.79,-54.320002 23.68,-19.5 v 0 z"
     fill="#3f3d56"
     id="path24" />
  <g
     id="g25"
     transform="translate(0,-9.2161546e-4)">
    <path
       id="uuid-a736fb77-ebf6-42b0-8b8a-4fdda1f3d2e9-649"
       d="m 414.23,230.72 c 2.45,5.61 7.33,8.9 10.9,7.34 3.57,-1.56 4.48,-7.37 2.04,-12.98 -0.95,-2.26 -2.42,-4.25 -4.3,-5.82 l -10.67,-23.65 -10.99,5.24 11.68,22.76 c -0.13,2.44 0.33,4.88 1.34,7.11 z"
       fill="#a0616a" />
    <path
       d="m 425.32,95.19 c 0,0 -15.32,-9.75 -20.89,1.39 -5.57,11.14 -18.11,68.25 -18.11,68.25 l 18.11,54.32 16.71,-6.96 -14.63,-58.46 18.8,-58.54 v 0 z"
       fill="#3f3d56"
       id="path25" />
  </g>
  <g
     id="g26"
     transform="translate(0,-9.2161546e-4)">
    <path
       id="uuid-58a199b9-e878-46e4-8346-6749f3d4d3cf-650"
       d="m 503.85,221.95 c 4.34,4.32 10.09,5.58 12.84,2.81 2.75,-2.77 1.45,-8.5 -2.89,-12.82 -1.71,-1.75 -3.82,-3.06 -6.14,-3.83 l -18.63,-18.06 -8.29,8.92 19.24,16.85 c 0.78,2.32 2.11,4.42 3.87,6.12 v 0 z"
       fill="#a0616a" />
    <path
       d="m 464.23,91.86 c 0,0 -26.71,-1.09 -27.79,11.32 -1.07,12.41 17.19,67.79 17.19,67.79 l 36.85,43.83 12.97,-12.63 -35.13,-48.96 c 0,0 -4.08,-61.35 -4.08,-61.35 z"
       fill="#3f3d56"
       id="path26" />
  </g>
  <g
     id="g28"
     transform="translate(0,-9.2161546e-4)">
    <path
       d="m 386.02,192.42 -22.31,-67.73 c -18.04,-15.89 -37.61,22.38 -90.14,0.68 l 16.52,76.61 c 39.72,-21.47 73.9,-29.88 95.93,-9.56 z"
       fill="#fff"
       id="path27"
       style="fill:#3f3d56;fill-opacity:1" />
    <path
       d="m 290.09,203.98 c -0.14,0 -0.29,-0.03 -0.42,-0.09 -0.29,-0.13 -0.49,-0.39 -0.56,-0.7 l -16.52,-76.61 c -0.08,-0.36 0.05,-0.74 0.34,-0.98 0.29,-0.24 0.68,-0.3 1.02,-0.16 29.84,12.32 49.1,4.99 63.17,-0.37 10.69,-4.07 19.13,-7.29 27.25,-0.14 0.13,0.12 0.23,0.27 0.29,0.44 l 22.31,67.73 c 0.14,0.43 -0.03,0.91 -0.41,1.15 -0.38,0.25 -0.89,0.2 -1.22,-0.11 -19.36,-17.86 -49.48,-14.78 -94.77,9.71 -0.15,0.08 -0.31,0.12 -0.48,0.12 z M 274.94,128 l 15.84,73.47 c 43.46,-23.27 73.23,-26.86 93.16,-11.13 l -21.11,-64.07 c -7.15,-6.12 -14.66,-3.26 -25.01,0.68 -14.1,5.37 -33.31,12.69 -62.88,1.06 v 0 z"
       fill="#3f3d56"
       id="path28" />
  </g>
  <g
     id="g30"
     transform="translate(0,-9.2161546e-4)">
    <path
       d="m 308.17,92.42 -14.12,2.92 c 0,0 -37.74,20.77 -30.6,28.64 7.13,7.87 37.44,8.88 37.44,8.88 l 6.26,-9.69 -7.58,-3.55 19.22,-15.85 -10.62,-11.35 z"
       fill="#a0616a"
       id="path29" />
    <path
       d="m 346.93,88.07 c 0,0 -13.79,-21.15 -27.26,-11.73 -13.47,9.42 -25.61,19 -25.61,19 l 16.78,21.19 36.1,-28.46 v 0 c 0,0 0,0 0,0 z"
       fill="#e6e6e6"
       id="path30"
       style="fill:#5f779c;fill-opacity:1" />
    <ellipse
       cx="311.10001"
       cy="129.86"
       rx="7.02"
       ry="14.03"
       transform="rotate(-78.56,311.09542,129.86222)"
       fill="#a0616a"
       id="ellipse30" />
  </g>
  <circle
     cx="585.63"
     cy="413.49908"
     r="8.4399996"
     fill="#3f3d56"
     id="circle30" />
  <circle
     cx="596.88"
     cy="426.58908"
     r="8.4399996"
     fill="#3f3d56"
     id="circle31" />
  <circle
     cx="681.26001"
     cy="426.58908"
     r="8.4399996"
     fill="#3f3d56"
     id="circle32" />
  <path
     d="m 609.24,300.28908 v -91.65 c 0,-10.26 8.58,-12.8 18.84,-12.8 5.03,0 7.47,-0.58 11,3 3.53,3.58 7.45,5.07 7.37,10.1 l -1.48,89.93 -35.74,1.41 z m 19.84,-98.44 c -9.16,0 -17.84,-2.36 -17.84,6.8 v 89.57 l 31.77,-1.26 1.45,-88.04 c 0.07,-4.49 -7.23,-3.87 -10.37,-7.07 -3.15,-3.2 -0.51,0 -5,0 v 0 z"
     fill="#3f3d56"
     id="path32" />
  <path
     d="m 584.12,299.17908 -1.28,100.13 c -0.02,1.29 0.29,2.56 0.89,3.7 l 9.46,17.87 c 1.39,2.63 4.17,4.22 7.14,4.09 l 83.06,-3.66 c 4.25,-0.19 7.54,-3.79 7.35,-8.04 l -5.21,-114.33 c -0.19,-4.11 -3.57,-7.35 -7.69,-7.35 h -86.03 c -4.21,0 -7.64,3.39 -7.7,7.6 v 0 z"
     fill="#e6e6e6"
     id="path33"
     style="fill:#5f779c;fill-opacity:1" />
  <path
     d="m 616.86,344.36908 -2,-0.1 0.74,-14.82 c 0.4,-7.98 6.97,-14.38 14.96,-14.57 l 35.37,-0.82 c 7.14,-0.12 13.06,5.29 13.45,12.43 l 0.75,13.55 -2,0.11 -0.75,-13.55 c -0.34,-6.05 -5.39,-10.69 -11.41,-10.54 l -35.37,0.82 c -6.95,0.16 -12.66,5.73 -13.01,12.67 l -0.74,14.82 z"
     fill="#3f3d56"
     id="path34" />
  <path
     d="m 615.45,416.14908 -1.99,-0.2 4.31,-42.06 c 0.8,-7.78 7.29,-13.91 15.1,-14.26 l 34.5,-1.55 c 4.35,-0.2 8.48,1.34 11.64,4.33 3.16,2.99 4.92,7.03 4.97,11.38 l 0.39,36.62 -2,0.02 -0.39,-36.62 c -0.04,-3.8 -1.58,-7.33 -4.34,-9.95 -2.76,-2.62 -6.39,-3.96 -10.17,-3.79 l -34.5,1.55 c -6.83,0.31 -12.5,5.66 -13.2,12.46 l -4.31,42.06 z"
     fill="#3f3d56"
     id="path35" />
  <path
     d="m 599.99,413.23908 -2,-0.03 1.26,-96.12 c 0.09,-6.57 5.3,-11.87 11.87,-12.07 l 68,-2 0.06,2 -68,2 c -5.5,0.16 -9.86,4.59 -9.93,10.09 l -1.26,96.12 z"
     fill="#3f3d56"
     id="path36" />
  <path
     d="m 600.17,399.54908 h -1.39 v -87.54 c 0,-2.77 -2.25,-5.03 -5.03,-5.03 h -7.77 v -2 h 7.77 c 3.67,0 6.69,2.83 7,6.41 0.02,0.2 0.03,0.41 0.03,0.62 v 41.45 z"
     fill="#3f3d56"
     id="path37" />
  <g
     id="g40"
     transform="translate(0,-9.2161546e-4)">
    <path
       d="m 473.49,48.89 c 0,12.82 -10.39,23.21 -23.21,23.21 -12.82,0 -23.21,-10.39 -23.21,-23.21 0,-12.82 10.39,-23.21 23.21,-23.21 12.82,0 23.21,10.39 23.21,23.21 z"
       fill="#a0616a"
       id="path38" />
    <path
       d="m 448.43,17.69 c 0.67,0.39 1.57,-0.2 1.79,-0.95 0.22,-0.75 -0.04,-1.54 -0.28,-2.28 -0.42,-1.24 -0.83,-2.47 -1.25,-3.71 -0.89,-2.63 -1.83,-5.35 -3.75,-7.35 -2.9,-3.02 -7.52,-3.79 -11.67,-3.23 -5.33,0.72 -10.59,3.6 -13.07,8.38 -2.48,4.78 -1.42,11.44 3.06,14.42 -6.39,7.32 -8.61,15.48 -8.26,25.18 0.35,9.71 10.93,18.64 17.83,25.48 1.54,-0.93 2.94,-5.31 2.09,-6.9 -0.85,-1.59 0.37,-3.43 -0.68,-4.9 -1.05,-1.46 -1.93,0.87 -0.87,-0.59 0.67,-0.92 -1.94,-3.03 -0.95,-3.58 4.81,-2.66 6.41,-8.66 9.43,-13.25 3.65,-5.54 9.88,-9.29 16.49,-9.91 3.64,-0.34 7.48,0.28 10.46,2.39 2.98,2.11 4.91,5.88 4.22,9.47 1.79,-1.82 2.68,-4.48 2.35,-7.01 -0.34,-2.53 -1.89,-4.87 -4.1,-6.16 1.34,-4.43 0.19,-9.53 -2.92,-12.95 -3.11,-3.43 -15.72,-2.84 -20.26,-1.94 l 0.35,-0.6 c 0,0 0,0 0,0 z"
       fill="#2f2e41"
       id="path39" />
    <path
       d="m 447.73,34.63 c -6.01,0.65 -10.35,5.86 -14.02,10.67 -2.11,2.77 -4.33,5.83 -4.27,9.32 0.05,3.52 2.41,6.55 3.54,9.88 1.84,5.46 0.05,11.95 -4.33,15.69 4.33,0.82 9.01,-2.42 9.75,-6.77 0.87,-5.05 -2.96,-9.93 -2.51,-15.04 0.4,-4.5 3.95,-7.96 6.96,-11.33 3.02,-3.37 5.85,-7.83 4.46,-12.13 0,0 0.42,-0.29 0.42,-0.29 z"
       fill="#2f2e41"
       id="path40" />
  </g>
</svg>
